<?xml version="1.0" encoding="UTF-8"?>
<svg version="1.1" xmlns="http://www.w3.org/2000/svg" width="198" height="180">
<path d="M0 0 C65.34 0 130.68 0 198 0 C198 59.4 198 118.8 198 180 C132.66 180 67.32 180 0 180 C0 120.6 0 61.2 0 0 Z " fill="#66A6E7" transform="translate(0,0)"/>
<path d="M0 0 C1.32 0 2.64 0 4 0 C4 4.29 4 8.58 4 13 C7.11332248 12.33131686 7.11332248 12.33131686 8.1875 9.9375 C8.5896875 8.9784375 8.5896875 8.9784375 9 8 C11.1519437 11.22791555 11.20086443 12.28400809 11 16 C11.556875 16.103125 12.11375 16.20625 12.6875 16.3125 C15.44176578 17.13133577 17.58727657 18.45853781 20 20 C20.144375 19.360625 20.28875 18.72125 20.4375 18.0625 C21 16 21 16 22 15 C23.66617115 14.95936168 25.33388095 14.957279 27 15 C27 13.68 27 12.36 27 11 C27.66 11 28.32 11 29 11 C29 10.34 29 9.68 29 9 C31.97 8.505 31.97 8.505 35 8 C34.67 12.95 34.34 17.9 34 23 C34.66 23.33 35.32 23.66 36 24 C36.85609376 26.25697445 37.1566158 27.52099973 36.3984375 29.83984375 C35.86666647 32.72287691 36.67075625 34.13974016 37.9375 36.75 C38.31777344 37.54921875 38.69804688 38.3484375 39.08984375 39.171875 C39.39019531 39.77515625 39.69054687 40.3784375 40 41 C40.33 40.67 40.66 40.34 41 40 C41.66 40 42.32 40 43 40 C43.33 37.36 43.66 34.72 44 32 C43.34 32 42.68 32 42 32 C42.495 30.515 42.495 30.515 43 29 C43.99 29.7734375 43.99 29.7734375 45 30.5625 C49.14659826 32.54941167 51.53020565 31.83335149 56 31 C56.495 32.485 56.495 32.485 57 34 C59.01508358 34.73323796 59.01508358 34.73323796 61 35 C60.96447021 35.93384521 60.92894043 36.86769043 60.89233398 37.82983398 C60.76338667 41.28299578 60.63902888 44.73625852 60.51782227 48.18969727 C60.46433566 49.68650938 60.4090013 51.18325663 60.35180664 52.67993164 C60.27008044 54.82684332 60.1949254 56.97389793 60.12109375 59.12109375 C60.0739624 60.4145874 60.02683105 61.70808105 59.97827148 63.04077148 C59.6529728 65.88693808 59.6529728 65.88693808 61 67 C60.91062197 68.52519276 60.75462854 70.04681929 60.5625 71.5625 C60.40974609 72.80193359 60.40974609 72.80193359 60.25390625 74.06640625 C60.17011719 74.70449219 60.08632812 75.34257813 60 76 C59.34 76 58.68 76 58 76 C58 76.66 58 77.32 58 78 C58.66 78 59.32 78 60 78 C59.505 79.485 59.505 79.485 59 81 C58.505 80.67 58.01 80.34 57.5 80 C53.82094852 78.52837941 50.96398837 78.7483182 47 79 C46.01 79.66 45.02 80.32 44 81 C43.319375 81.0825 42.63875 81.165 41.9375 81.25 C41.298125 81.4975 40.65875 81.745 40 82 C38.6954344 84.99615946 38.6954344 84.99615946 38 88 C38.78375 87.95875 39.5675 87.9175 40.375 87.875 C43 88 43 88 45 90 C45.125 92.625 45.125 92.625 45 95 C46.98 95.495 46.98 95.495 49 96 C49 97.98 49 99.96 49 102 C47.35 102 45.7 102 44 102 C43.67 101.01 43.34 100.02 43 99 C42.34 99 41.68 99 41 99 C41 98.34 41 97.68 41 97 C37.45056381 98.91861416 35.0603073 100.502269 33 104 C32.63842121 107.0477445 32.63842121 107.0477445 32.8125 110.25 C32.83957031 111.32765625 32.86664063 112.4053125 32.89453125 113.515625 C32.92933594 114.33546875 32.96414062 115.1553125 33 116 C29.125 114.125 29.125 114.125 28 113 C25.90565724 112.5735369 23.79864779 112.20846272 21.6875 111.875 C20.53636719 111.68679687 19.38523437 111.49859375 18.19921875 111.3046875 C15.35195625 111.03351964 13.65984263 111.10285593 11 112 C10.67 112 10.34 112 10 112 C9.773125 112.680625 9.54625 113.36125 9.3125 114.0625 C7.64427643 117.79614324 5.44270392 120.72163421 3 124 C0.53199953 122.84826645 -1.04783565 121.95216435 -3 120 C-3.40047444 117.67724823 -3.7397104 115.34260643 -4 113 C-5.4540625 112.814375 -5.4540625 112.814375 -6.9375 112.625 C-8.4534375 112.315625 -8.4534375 112.315625 -10 112 C-10.33 111.34 -10.66 110.68 -11 110 C-14.465 110.495 -14.465 110.495 -18 111 C-19.23921302 113.97411124 -20.30058404 116.85262818 -21 120 C-26.48780488 120.36585366 -26.48780488 120.36585366 -28.75 118.75 C-30.0672814 116.90580604 -31.07360134 115.06658163 -32 113 C-32.99 113.99 -32.99 113.99 -34 115 C-36.49505962 112.50494038 -36.35948376 111.32671112 -36.625 107.875 C-36.69976562 106.96492188 -36.77453125 106.05484375 -36.8515625 105.1171875 C-36.90054688 104.41851562 -36.94953125 103.71984375 -37 103 C-38.60875 103.309375 -38.60875 103.309375 -40.25 103.625 C-45.20481928 104.12048193 -45.20481928 104.12048193 -48 102 C-50.44063179 99.49157288 -51.86321361 97.93470701 -52.375 94.4375 C-51.97679973 91.84919823 -51.43338314 90.18779532 -50 88 C-48.515 87.01 -48.515 87.01 -47 86 C-46.83329727 82.95826106 -46.83329727 82.95826106 -47 80 C-46.505 79.505 -46.505 79.505 -46 79 C-47.32 78.34 -48.64 77.68 -50 77 C-50.66 77.99 -51.32 78.98 -52 80 C-52.99 80 -53.98 80 -55 80 C-54.67 78.68 -54.34 77.36 -54 76 C-54.99 75.67 -55.98 75.34 -57 75 C-58.6875 73.5625 -58.6875 73.5625 -60 72 C-60 71.34 -60 70.68 -60 70 C-60.66 69.67 -61.32 69.34 -62 69 C-61.67 68.01 -61.34 67.02 -61 66 C-59.88625 65.87625 -58.7725 65.7525 -57.625 65.625 C-53.96896323 65.3534187 -53.96896323 65.3534187 -52 63 C-51.75684344 60.33050591 -51.75684344 60.33050591 -51.875 57.375 C-51.89304687 56.37210938 -51.91109375 55.36921875 -51.9296875 54.3359375 C-51.95289063 53.56507812 -51.97609375 52.79421875 -52 52 C-51.34 52 -50.68 52 -50 52 C-50 50.68 -50 49.36 -50 48 C-50.66 48 -51.32 48 -52 48 C-52.36220266 46.20994059 -52.71452469 44.41787943 -53.0625 42.625 C-53.25972656 41.62726562 -53.45695312 40.62953125 -53.66015625 39.6015625 C-54 37 -54 37 -53 35 C-53.66 35 -54.32 35 -55 35 C-55 34.01 -55 33.02 -55 32 C-53.9790625 32.2784375 -53.9790625 32.2784375 -52.9375 32.5625 C-49.42767809 33.08523943 -46.47811937 32.61378577 -43 32 C-43 32.66 -43 33.32 -43 34 C-38.79477303 32.17164045 -36.87520926 31.15224908 -35 27 C-33.1875 25.875 -33.1875 25.875 -31 25 C-30.0925 24.62875 -29.185 24.2575 -28.25 23.875 C-27.5075 23.58625 -26.765 23.2975 -26 23 C-26.680625 22.2265625 -26.680625 22.2265625 -27.375 21.4375 C-29.38200383 18.42699426 -30.12731809 15.49072763 -31 12 C-28.00667261 12.9977758 -27.05233685 13.7522025 -25 16 C-24.01 15.67 -23.02 15.34 -22 15 C-21.34 15.33 -20.68 15.66 -20 16 C-20 16.99 -20 17.98 -20 19 C-18.02 18.67 -16.04 18.34 -14 18 C-14 17.34 -14 16.68 -14 16 C-13.2575 16.185625 -12.515 16.37125 -11.75 16.5625 C-9.05009037 16.99203108 -7.55368923 16.85122974 -5 16 C-4.67 13.69 -4.34 11.38 -4 9 C-3.34 9 -2.68 9 -2 9 C-2 9.99 -2 10.98 -2 12 C-1.34 12 -0.68 12 0 12 C0 8.04 0 4.08 0 0 Z " fill="#B7C9C4" transform="translate(68,0)"/>
<path d="M0 0 C1.06605469 0.00257812 2.13210937 0.00515625 3.23046875 0.0078125 C4.81794922 0.00394531 4.81794922 0.00394531 6.4375 0 C9.41796875 0.1328125 9.41796875 0.1328125 11.6171875 0.703125 C13.63790102 1.35271176 13.63790102 1.35271176 16.41796875 0.1328125 C18.6796875 0.25390625 18.6796875 0.25390625 21.10546875 0.5703125 C21.91371094 0.67214844 22.72195312 0.77398438 23.5546875 0.87890625 C24.16957031 0.96269531 24.78445312 1.04648437 25.41796875 1.1328125 C25.91296875 2.6178125 25.91296875 2.6178125 26.41796875 4.1328125 C27.07796875 4.4628125 27.73796875 4.7928125 28.41796875 5.1328125 C28.41796875 5.7928125 28.41796875 6.4528125 28.41796875 7.1328125 C29.49046875 7.3184375 30.56296875 7.5040625 31.66796875 7.6953125 C34.93126659 8.60215186 36.16951155 9.70521173 37.85546875 12.6328125 C39.41796875 16.1328125 39.41796875 16.1328125 39.41796875 18.1328125 C40.90296875 18.6278125 40.90296875 18.6278125 42.41796875 19.1328125 C42.41796875 20.7828125 42.41796875 22.4328125 42.41796875 24.1328125 C43.07796875 24.1328125 43.73796875 24.1328125 44.41796875 24.1328125 C46.30878882 36.42314293 46.72776756 50.57127643 39.90625 61.5703125 C39.41511719 62.0859375 38.92398438 62.6015625 38.41796875 63.1328125 C37.75796875 63.1328125 37.09796875 63.1328125 36.41796875 63.1328125 C36.32515625 64.2465625 36.32515625 64.2465625 36.23046875 65.3828125 C35.15161791 69.03430765 33.5281625 70.01222586 30.41796875 72.1328125 C29.61359375 72.7103125 28.80921875 73.2878125 27.98046875 73.8828125 C24.93708672 75.3673891 22.76260503 75.36615922 19.41796875 75.1328125 C19.41796875 75.7928125 19.41796875 76.4528125 19.41796875 77.1328125 C10.46411943 77.42944309 2.8124513 77.60878871 -5.58203125 74.1328125 C-6.81953125 73.8440625 -8.05703125 73.5553125 -9.33203125 73.2578125 C-13.2058731 71.91686724 -14.85427976 70.14769573 -17.58203125 67.1328125 C-19.24096307 65.78986769 -20.9067973 64.45536562 -22.58203125 63.1328125 C-24.39453125 61.6328125 -24.39453125 61.6328125 -25.58203125 60.1328125 C-25.58203125 58.8128125 -25.58203125 57.4928125 -25.58203125 56.1328125 C-26.57203125 55.8028125 -27.56203125 55.4728125 -28.58203125 55.1328125 C-28.72640625 53.9984375 -28.87078125 52.8640625 -29.01953125 51.6953125 C-29.19374603 48.32504049 -29.19374603 48.32504049 -30.58203125 47.1328125 C-31.4885536 33.62214288 -29.45659245 23.30832613 -21.58203125 12.1328125 C-18.95703125 9.1953125 -18.95703125 9.1953125 -16.58203125 7.1328125 C-16.00453125 6.5965625 -15.42703125 6.0603125 -14.83203125 5.5078125 C-11.87782711 3.70246553 -8.80935226 2.78630138 -5.5078125 1.78125 C-0.25696994 0.01321782 -0.25696994 0.01321782 0 0 Z " fill="#FCC258" transform="translate(60.58203125,23.8671875)"/>
<path d="M0 0 C1.9765625 1.5078125 1.9765625 1.5078125 3.375 2.875 C3.375 3.535 3.375 4.195 3.375 4.875 C4.695 5.535 6.015 6.195 7.375 6.875 C7.375 7.865 7.375 8.855 7.375 9.875 C8.035 9.875 8.695 9.875 9.375 9.875 C9.87 12.35 9.87 12.35 10.375 14.875 C11.035 14.875 11.695 14.875 12.375 14.875 C18.47391594 26.20155818 17.49424934 40.78790881 14.375 52.875 C12.89 53.37 12.89 53.37 11.375 53.875 C10.53675305 55.61412655 10.53675305 55.61412655 10 57.6875 C8.64299972 61.7296285 6.87889509 63.38539033 3.375 65.875 C2.88 67.36 2.88 67.36 2.375 68.875 C0.37890625 69.75390625 0.37890625 69.75390625 -2.0625 70.4375 C-5.72358228 71.46007259 -5.72358228 71.46007259 -8.625 73.875 C-11.75 74 -11.75 74 -14.625 73.875 C-14.625 73.215 -14.625 72.555 -14.625 71.875 C-13.635 71.648125 -12.645 71.42125 -11.625 71.1875 C-7.14587052 69.89211021 -3.23117032 67.84177842 0.375 64.875 C1.67160434 62.38465614 1.67160434 62.38465614 2.375 59.875 C3.0040625 59.29878906 3.633125 58.72257812 4.28125 58.12890625 C12.70538385 49.06038903 10.79086747 32.25359594 10.375 20.875 C9.715 20.875 9.055 20.875 8.375 20.875 C8.271875 20.111875 8.16875 19.34875 8.0625 18.5625 C7.29339787 15.55600984 6.54627175 14.9627613 4.375 12.875 C3.9625 11.885 3.55 10.895 3.125 9.875 C0.75764014 5.81666881 -1.25699846 5.35847222 -5.625 3.875 C-5.625 3.215 -5.625 2.555 -5.625 1.875 C-6.945 1.215 -8.265 0.555 -9.625 -0.125 C-9.295 -0.455 -8.965 -0.785 -8.625 -1.125 C-10.20726965 -1.32127391 -11.79089271 -1.50665538 -13.375 -1.6875 C-14.25671875 -1.79191406 -15.1384375 -1.89632813 -16.046875 -2.00390625 C-18.53161505 -2.12061374 -20.25215259 -1.76848404 -22.625 -1.125 C-24.62740549 -1.44356451 -26.62711562 -1.77921232 -28.625 -2.125 C-33.85653613 -2.58751302 -37.23369221 -2.12957902 -41.625 0.875 C-42.594375 1.184375 -43.56375 1.49375 -44.5625 1.8125 C-52.03405712 4.40467288 -54.82277942 8.28098053 -58.3046875 15.1171875 C-61.8469769 22.51617068 -63.7972854 28.27967392 -63.75 36.5625 C-63.75386719 37.25150391 -63.75773437 37.94050781 -63.76171875 38.65039062 C-64.05485914 42.04893379 -64.05485914 42.04893379 -62.625 44.875 C-62.480625 46.03 -62.33625 47.185 -62.1875 48.375 C-62.001875 49.53 -61.81625 50.685 -61.625 51.875 C-60.965 52.205 -60.305 52.535 -59.625 52.875 C-59 55.9375 -59 55.9375 -58.625 58.875 C-60.11 58.38 -60.11 58.38 -61.625 57.875 C-61.955 57.215 -62.285 56.555 -62.625 55.875 C-64.11 55.38 -64.11 55.38 -65.625 54.875 C-65.625 54.215 -65.625 53.555 -65.625 52.875 C-64.965 52.875 -64.305 52.875 -63.625 52.875 C-63.625 51.555 -63.625 50.235 -63.625 48.875 C-64.285 48.875 -64.945 48.875 -65.625 48.875 C-65.625 47.555 -65.625 46.235 -65.625 44.875 C-66.42164062 44.88660156 -67.21828125 44.89820313 -68.0390625 44.91015625 C-78.56348858 44.99978032 -78.56348858 44.99978032 -83.625 43.875 C-83.625 43.215 -83.625 42.555 -83.625 41.875 C-78.31333136 40.54708284 -72.86618425 40.12793858 -67.625 41.875 C-67.295 34.615 -66.965 27.355 -66.625 19.875 C-67.945 19.545 -69.265 19.215 -70.625 18.875 C-70.625 18.215 -70.625 17.555 -70.625 16.875 C-71.24375 16.771875 -71.8625 16.66875 -72.5 16.5625 C-74.625 15.875 -74.625 15.875 -76.625 12.875 C-75.0184324 13.13120684 -73.4147517 13.40555871 -71.8125 13.6875 C-70.91917969 13.83832031 -70.02585937 13.98914063 -69.10546875 14.14453125 C-66.40821371 14.938841 -65.47939811 15.84240147 -63.625 17.875 C-62.965 17.875 -62.305 17.875 -61.625 17.875 C-61.51285156 17.14152344 -61.40070312 16.40804687 -61.28515625 15.65234375 C-59.5746345 8.45600669 -54.46220496 3.1241288 -48.515625 -0.97265625 C-45.11641128 -3.04449106 -42.61314435 -4.125 -38.625 -4.125 C-38.625 -4.785 -38.625 -5.445 -38.625 -6.125 C-25.12428733 -9.49333196 -11.3432268 -8.02086055 0 0 Z " fill="#F5EFC3" transform="translate(94.625,27.125)"/>
<path d="M0 0 C1.32 0 2.64 0 4 0 C4 4.29 4 8.58 4 13 C7.11332248 12.33131686 7.11332248 12.33131686 8.1875 9.9375 C8.455625 9.298125 8.72375 8.65875 9 8 C11.1519437 11.22791555 11.20086443 12.28400809 11 16 C11.556875 16.103125 12.11375 16.20625 12.6875 16.3125 C15.44176578 17.13133577 17.58727657 18.45853781 20 20 C20.144375 19.360625 20.28875 18.72125 20.4375 18.0625 C21 16 21 16 22 15 C23.66617115 14.95936168 25.33388095 14.957279 27 15 C27 13.68 27 12.36 27 11 C27.66 11 28.32 11 29 11 C29 10.34 29 9.68 29 9 C31.97 8.505 31.97 8.505 35 8 C34.67 12.95 34.34 17.9 34 23 C34.66 23.33 35.32 23.66 36 24 C36.85745092 26.26055242 37.14856599 27.53167279 36.41015625 29.859375 C35.87772242 32.63817251 36.53951927 33.90689355 37.75 36.4375 C38.306875 37.62859375 38.306875 37.62859375 38.875 38.84375 C39.99493175 41.11411517 39.99493175 41.11411517 41.75 43.4375 C43.72006559 47.47613445 43.23148268 51.58468227 43 56 C41.30566082 52.9530371 40.50532888 50.17178534 39.875 46.75 C39.70742187 45.85796875 39.53984375 44.9659375 39.3671875 44.046875 C39.24601562 43.37140625 39.12484375 42.6959375 39 42 C38.34 42 37.68 42 37 42 C36.67 40.35 36.34 38.7 36 37 C35.34 37 34.68 37 34 37 C33.71125 36.360625 33.4225 35.72125 33.125 35.0625 C32.17176549 32.84793921 32.17176549 32.84793921 30 32 C30 31.34 30 30.68 30 30 C29.46375 29.7525 28.9275 29.505 28.375 29.25 C26 28 26 28 23.25 26.0625 C15.29135199 21.01181953 8.73020761 20.5972021 -0.5 20.8125 C-1.60859375 20.82603516 -2.7171875 20.83957031 -3.859375 20.85351562 C-6.57343232 20.88861119 -9.28645193 20.9377773 -12 21 C-12 21.66 -12 22.32 -12 23 C-13.01320313 23.36351562 -13.01320313 23.36351562 -14.046875 23.734375 C-18.90741913 25.560591 -22.5473649 26.97192571 -26 31 C-26.66 31 -27.32 31 -28 31 C-28.27585937 31.55171875 -28.55171875 32.1034375 -28.8359375 32.671875 C-30.890625 36.78125 -32.9453125 40.890625 -35 45 C-35.33 45 -35.66 45 -36 45 C-36.27296006 39.63178541 -36.43355477 36.38074229 -33 32 C-32.154375 31.175 -31.30875 30.35 -30.4375 29.5 C-28.02218137 27.02275012 -27.02456396 25.25997625 -26 22 C-26.45375 21.649375 -26.9075 21.29875 -27.375 20.9375 C-29.64661334 18.22903794 -30.16798854 15.39204672 -31 12 C-28.00667261 12.9977758 -27.05233685 13.7522025 -25 16 C-24.01 15.67 -23.02 15.34 -22 15 C-21.34 15.33 -20.68 15.66 -20 16 C-20 16.99 -20 17.98 -20 19 C-18.02 18.67 -16.04 18.34 -14 18 C-14 17.34 -14 16.68 -14 16 C-13.2575 16.185625 -12.515 16.37125 -11.75 16.5625 C-9.05009037 16.99203108 -7.55368923 16.85122974 -5 16 C-4.67 13.69 -4.34 11.38 -4 9 C-3.34 9 -2.68 9 -2 9 C-2 9.99 -2 10.98 -2 12 C-1.34 12 -0.68 12 0 12 C0 8.04 0 4.08 0 0 Z " fill="#C1D0C5" transform="translate(68,0)"/>
<path d="M0 0 C0.66 0.66 1.32 1.32 2 2 C1.625 4 1.625 4 1 6 C1 6.66 1 7.32 1 8 C1.99 8 2.98 8 4 8 C4.1875 10.375 4.1875 10.375 4 13 C3.01 13.66 2.02 14.32 1 15 C0.74969023 17.58380177 0.74969023 17.58380177 1 20 C1.721875 19.360625 2.44375 18.72125 3.1875 18.0625 C5.98191184 16.01326465 7.61663274 15.38667054 11 15 C11.33 15.99 11.66 16.98 12 18 C12.99 18.33 13.98 18.66 15 19 C15 19.66 15 20.32 15 21 C15.763125 20.67 16.52625 20.34 17.3125 20 C20 19 20 19 23 19 C23.25 21.25 23.25 21.25 23 24 C22.34 24.5775 21.68 25.155 21 25.75 C18.23916359 28.85594096 18.67793891 31.15436157 18.859375 35.171875 C18.90578125 35.77515625 18.9521875 36.3784375 19 37 C19.4125 36.21625 19.825 35.4325 20.25 34.625 C22.0392777 31.94108344 23.04988139 31.11901051 26 30 C26 27.69 26 25.38 26 23 C28.91307991 23.52965089 31.66132736 24.20076009 34.5 25.0625 C37.59750917 25.89218996 39.84439293 26.08105155 43 26 C43.19916016 27.33804688 43.19916016 27.33804688 43.40234375 28.703125 C43.57894531 29.87359375 43.75554687 31.0440625 43.9375 32.25 C44.11152344 33.41015625 44.28554687 34.5703125 44.46484375 35.765625 C44.8727736 38.23106961 45.33901303 40.59424562 46 43 C46.66 43 47.32 43 48 43 C48.66 39.37 49.32 35.74 50 32 C51.32 32 52.64 32 54 32 C54.71484375 33.671875 54.71484375 33.671875 55 36 C53.56640625 38.578125 53.56640625 38.578125 51.5625 41.25 C50.90378906 42.14203125 50.24507812 43.0340625 49.56640625 43.953125 C49.04949219 44.62859375 48.53257813 45.3040625 48 46 C45.53199953 44.84826645 43.95216435 43.95216435 42 42 C41.59952556 39.67724823 41.2602896 37.34260643 41 35 C39.5459375 34.814375 39.5459375 34.814375 38.0625 34.625 C37.051875 34.41875 36.04125 34.2125 35 34 C34.67 33.34 34.34 32.68 34 32 C30.535 32.495 30.535 32.495 27 33 C25.76078698 35.97411124 24.69941596 38.85262818 24 42 C18.51219512 42.36585366 18.51219512 42.36585366 16.25 40.75 C14.9327186 38.90580604 13.92639866 37.06658163 13 35 C12.34 35.66 11.68 36.32 11 37 C8.50494038 34.50494038 8.64051624 33.32671112 8.375 29.875 C8.30023438 28.96492188 8.22546875 28.05484375 8.1484375 27.1171875 C8.09945313 26.41851562 8.05046875 25.71984375 8 25 C6.9275 25.20625 5.855 25.4125 4.75 25.625 C-0.20481928 26.12048193 -0.20481928 26.12048193 -3 24 C-5.44063179 21.49157288 -6.86321361 19.93470701 -7.375 16.4375 C-6.97679973 13.84919823 -6.43338314 12.18779532 -5 10 C-4.01 9.34 -3.02 8.68 -2 8 C-1.95834237 6.00043389 -1.95834237 3.99956611 -2 2 C-1.34 1.34 -0.68 0.68 0 0 Z " fill="#88B2D6" transform="translate(23,78)"/>
<path d="M0 0 C-0.61052286 3.55007737 -1.002705 4.00235968 -3.9375 6.5625 C-7.70389566 10.05023631 -8.0175205 13.7616987 -8.578125 18.70703125 C-8.71734375 19.46371094 -8.8565625 20.22039063 -9 21 C-9.66 21.33 -10.32 21.66 -11 22 C-11.66 21.01 -12.32 20.02 -13 19 C-15.18505129 18.20562077 -15.18505129 18.20562077 -17.625 17.8125 C-18.85089844 17.57466797 -18.85089844 17.57466797 -20.1015625 17.33203125 C-21.04128906 17.16767578 -21.04128906 17.16767578 -22 17 C-21.175 17.45375 -20.35 17.9075 -19.5 18.375 C-18.675 18.91125 -17.85 19.4475 -17 20 C-17 20.66 -17 21.32 -17 22 C-15.35 22.33 -13.7 22.66 -12 23 C-12.33 30.26 -12.66 37.52 -13 45 C-13.99 45.495 -13.99 45.495 -15 46 C-15.66 45.67 -16.32 45.34 -17 45 C-19.2072923 44.92907158 -21.41667452 44.91584975 -23.625 44.9375 C-25.40777344 44.95103516 -25.40777344 44.95103516 -27.2265625 44.96484375 C-28.59941406 44.98224609 -28.59941406 44.98224609 -30 45 C-30 45.66 -30 46.32 -30 47 C-28.02 47 -26.04 47 -24 47 C-23.67 47.99 -23.34 48.98 -23 50 C-22.01 50.33 -21.02 50.66 -20 51 C-22.3125 53.5 -22.3125 53.5 -25 56 C-25.99 56 -26.98 56 -28 56 C-27.67 54.68 -27.34 53.36 -27 52 C-27.99 51.67 -28.98 51.34 -30 51 C-31.6875 49.5625 -31.6875 49.5625 -33 48 C-33 47.34 -33 46.68 -33 46 C-33.66 45.67 -34.32 45.34 -35 45 C-34.67 44.01 -34.34 43.02 -34 42 C-32.88625 41.87625 -31.7725 41.7525 -30.625 41.625 C-26.96896323 41.3534187 -26.96896323 41.3534187 -25 39 C-24.75684344 36.33050591 -24.75684344 36.33050591 -24.875 33.375 C-24.89304687 32.37210938 -24.91109375 31.36921875 -24.9296875 30.3359375 C-24.95289063 29.56507812 -24.97609375 28.79421875 -25 28 C-24.34 28 -23.68 28 -23 28 C-23 26.68 -23 25.36 -23 24 C-23.66 24 -24.32 24 -25 24 C-25.36220266 22.20994059 -25.71452469 20.41787943 -26.0625 18.625 C-26.25972656 17.62726562 -26.45695312 16.62953125 -26.66015625 15.6015625 C-27 13 -27 13 -26 11 C-26.66 11 -27.32 11 -28 11 C-28 10.01 -28 9.02 -28 8 C-27.319375 8.185625 -26.63875 8.37125 -25.9375 8.5625 C-22.42767809 9.08523943 -19.47811937 8.61378577 -16 8 C-16 8.66 -16 9.32 -16 10 C-11.79477303 8.17164045 -9.87520926 7.15224908 -8 3 C-6 1.8125 -6 1.8125 -4 1 C-2 0 -2 0 0 0 Z " fill="#B0CAC7" transform="translate(41,24)"/>
<path d="M0 0 C0 0.66 0 1.32 0 2 C1.32 2.33 2.64 2.66 4 3 C3.96447021 3.93384521 3.92894043 4.86769043 3.89233398 5.82983398 C3.76338667 9.28299578 3.63902888 12.73625852 3.51782227 16.18969727 C3.46433566 17.68650938 3.4090013 19.18325663 3.35180664 20.67993164 C3.27008044 22.82684332 3.1949254 24.97389793 3.12109375 27.12109375 C3.0739624 28.4145874 3.02683105 29.70808105 2.97827148 31.04077148 C2.6529728 33.88693808 2.6529728 33.88693808 4 35 C3.91062197 36.52519276 3.75462854 38.04681929 3.5625 39.5625 C3.46066406 40.38878906 3.35882813 41.21507812 3.25390625 42.06640625 C3.17011719 42.70449219 3.08632812 43.34257813 3 44 C2.34 44 1.68 44 1 44 C1 44.66 1 45.32 1 46 C1.66 46 2.32 46 3 46 C2.67 46.99 2.34 47.98 2 49 C-2.75647668 47.41450777 -2.75647668 47.41450777 -5 46 C-6.4375 42.8125 -6.4375 42.8125 -7 40 C-3.7 40 -0.4 40 3 40 C3 38.68 3 37.36 3 36 C-1.62 36 -6.24 36 -11 36 C-10.01 35.01 -9.02 34.02 -8 33 C-9.32 32.67 -10.64 32.34 -12 32 C-12.16986545 30.43784452 -12.33573964 28.8752548 -12.5 27.3125 C-12.5928125 26.44238281 -12.685625 25.57226562 -12.78125 24.67578125 C-13.36410923 17.54616385 -13.36410923 17.54616385 -11 14 C-9.35965807 13.27095914 -7.68698082 12.61344757 -6 12 C-3.99248185 11.01517978 -1.99065541 10.01847486 0 9 C0 7.68 0 6.36 0 5 C-1.65 4.67 -3.3 4.34 -5 4 C-5.33 4.99 -5.66 5.98 -6 7 C-7.32 7 -8.64 7 -10 7 C-10.33 4.69 -10.66 2.38 -11 0 C-6.98195309 -0.84098656 -3.98196457 -1.05404945 0 0 Z " fill="#9CC1D5" transform="translate(125,32)"/>
<path d="M0 0 C0.87454834 0.00523682 1.74909668 0.01047363 2.65014648 0.01586914 C3.59438477 0.0190918 4.53862305 0.02231445 5.51147461 0.02563477 C6.50469727 0.03401367 7.49791992 0.04239258 8.52124023 0.05102539 C9.51833008 0.05553711 10.51541992 0.06004883 11.54272461 0.06469727 C14.0147551 0.07652516 16.48675496 0.09446124 18.95874023 0.11352539 C18.95874023 4.07352539 18.95874023 8.03352539 18.95874023 12.11352539 C18.29874023 12.11352539 17.63874023 12.11352539 16.95874023 12.11352539 C16.95874023 11.12352539 16.95874023 10.13352539 16.95874023 9.11352539 C16.29874023 9.11352539 15.63874023 9.11352539 14.95874023 9.11352539 C14.95874023 11.42352539 14.95874023 13.73352539 14.95874023 16.11352539 C9.54335562 18.32891001 9.54335562 18.32891001 6.58374023 17.23852539 C6.04749023 16.86727539 5.51124023 16.49602539 4.95874023 16.11352539 C4.95874023 16.77352539 4.95874023 17.43352539 4.95874023 18.11352539 C1.95874023 20.11352539 1.95874023 20.11352539 -0.22875977 19.73852539 C-1.12594727 19.42915039 -1.12594727 19.42915039 -2.04125977 19.11352539 C-1.71125977 18.12352539 -1.38125977 17.13352539 -1.04125977 16.11352539 C-1.74250977 16.38165039 -2.44375977 16.64977539 -3.16625977 16.92602539 C-6.50137252 17.14353274 -6.90676364 16.74521927 -9.35375977 14.67602539 C-10.24063477 13.83040039 -11.12750977 12.98477539 -12.04125977 12.11352539 C-11.05125977 13.59852539 -11.05125977 13.59852539 -10.04125977 15.11352539 C-9.72875977 18.67602539 -9.72875977 18.67602539 -10.04125977 22.11352539 C-11.03125977 22.77352539 -12.02125977 23.43352539 -13.04125977 24.11352539 C-15.94058333 21.71843201 -16.54294253 19.80107296 -17.04125977 16.11352539 C-16.71125977 16.11352539 -16.38125977 16.11352539 -16.04125977 16.11352539 C-15.71125977 13.47352539 -15.38125977 10.83352539 -15.04125977 8.11352539 C-11.103518 7.74722383 -9.47586205 7.81119336 -6.16625977 10.11352539 C-5.11438477 11.10352539 -5.11438477 11.10352539 -4.04125977 12.11352539 C-4.24750977 11.41227539 -4.45375977 10.71102539 -4.66625977 9.98852539 C-5.1226126 6.48982032 -4.3650263 4.34939914 -3.04125977 1.11352539 C-2.04125977 0.11352539 -2.04125977 0.11352539 0 0 Z " fill="#8DBADB" transform="translate(49.041259765625,-0.113525390625)"/>
<path d="M0 0 C7.92 0 15.84 0 24 0 C24.33 0.66 24.66 1.32 25 2 C25.66 1.67 26.32 1.34 27 1 C27.33 1.99 27.66 2.98 28 4 C27.02727325 5.35335895 26.0260734 6.68662604 25 8 C25 8.99 25 9.98 25 11 C24.34 11 23.68 11 23 11 C23 12.32 23 13.64 23 15 C22.030625 15.268125 21.06125 15.53625 20.0625 15.8125 C19.051875 16.204375 18.04125 16.59625 17 17 C16.67 17.99 16.34 18.98 16 20 C12.46615305 19.3455839 9.83093059 18.2349452 7 16 C5.6875 12.3125 5.6875 12.3125 5 9 C4.34 10.32 3.68 11.64 3 13 C2.01 13 1.02 13 0 13 C0 8.71 0 4.42 0 0 Z " fill="#8AB9DC" transform="translate(72,0)"/>
<path d="M0 0 C1.32 0 2.64 0 4 0 C4 3.63 4 7.26 4 11 C4.66 11 5.32 11 6 11 C6 11.66 6 12.32 6 13 C4.77023438 12.87431641 4.77023438 12.87431641 3.515625 12.74609375 C2.43796875 12.64425781 1.3603125 12.54242188 0.25 12.4375 C-0.81734375 12.33308594 -1.8846875 12.22867188 -2.984375 12.12109375 C-5.68519499 12.01264113 -7.43699325 12.33715343 -10 13 C-13.25 12.0625 -13.25 12.0625 -16 11 C-15.95875 12.0725 -15.9175 13.145 -15.875 14.25 C-15.9885825 17.65747485 -16.21273364 19.20739631 -18 22 C-18.66 22 -19.32 22 -20 22 C-22.15059309 18.46813168 -22.3797728 15.33712007 -22.625 11.25 C-22.73714844 9.49429688 -22.73714844 9.49429688 -22.8515625 7.703125 C-22.90054688 6.81109375 -22.94953125 5.9190625 -23 5 C-23.928125 5.20625 -24.85625 5.4125 -25.8125 5.625 C-29 6 -29 6 -32 4 C-31.33991943 3.97494385 -30.67983887 3.9498877 -29.99975586 3.92407227 C-26.97884631 3.80728248 -23.95818578 3.68493554 -20.9375 3.5625 C-19.37999023 3.50352539 -19.37999023 3.50352539 -17.79101562 3.44335938 C-8.1743232 3.69510609 -8.1743232 3.69510609 0 0 Z " fill="#ACC3C1" transform="translate(89,99)"/>
<path d="M0 0 C3.63 0 7.26 0 11 0 C11 1.32 11 2.64 11 4 C11.66 4 12.32 4 13 4 C13 5.32 13 6.64 13 8 C12.34 8 11.68 8 11 8 C11 8.66 11 9.32 11 10 C11.639375 10.12375 12.27875 10.2475 12.9375 10.375 C13.618125 10.58125 14.29875 10.7875 15 11 C15.33 11.66 15.66 12.32 16 13 C16.99 13.33 17.98 13.66 19 14 C19.33 15.98 19.66 17.96 20 20 C21.32 20 22.64 20 24 20 C26.25 22.5 26.25 22.5 28 25 C24.91190305 26.76462683 23.76687864 27 20 27 C17.25 24.5 17.25 24.5 15 22 C11.40608886 23.33488128 8.24509304 24.96022723 5 27 C5 25.02 5 23.04 5 21 C6.32 20.34 7.64 19.68 9 19 C9 17.35 9 15.7 9 14 C8.01 14 7.02 14 6 14 C4.875 9.25 4.875 9.25 6 7 C4.68 6.34 3.36 5.68 2 5 C2 4.34 2 3.68 2 3 C1.34 2.67 0.68 2.34 0 2 C0 1.34 0 0.68 0 0 Z " fill="#BCCDB6" transform="translate(18,72)"/>
<path d="M0 0 C0.99 0.495 0.99 0.495 2 1 C2.60967271 4.0257831 2.95979927 7.05469312 3.33984375 10.1171875 C4.05463226 13.23857163 4.77768478 13.88062581 7 16 C7 17.32 7 18.64 7 20 C7.66 20 8.32 20 9 20 C9 20.99 9 21.98 9 23 C9.99 22.67 10.98 22.34 12 22 C14.39047894 24.39047894 16 26.54145481 16 30 C20.29 30.33 24.58 30.66 29 31 C29 31.66 29 32.32 29 33 C33.29 33.33 37.58 33.66 42 34 C42 33.01 42 32.02 42 31 C42.59167969 30.97421875 43.18335938 30.9484375 43.79296875 30.921875 C49.18711201 30.53469343 51.9044268 29.74452407 56 26 C58.3125 25.25 58.3125 25.25 60 25 C60 24.34 60 23.68 60 23 C58.68 23 57.36 23 56 23 C56 22.34 56 21.68 56 21 C57.65 21.33 59.3 21.66 61 22 C61 26 61 26 59.625 27.75 C58 29 58 29 56 29 C56 29.66 56 30.32 56 31 C53.52653696 33.47346304 52.29238832 33.98313144 48.75 34.1875 C47.38875 34.0946875 47.38875 34.0946875 46 34 C46 34.66 46 35.32 46 36 C37.04615068 36.29663059 29.39448255 36.47597621 21 33 C19.14375 32.566875 19.14375 32.566875 17.25 32.125 C13.30953464 30.76099276 11.72010547 29.13858324 9 26 C8.49339844 25.50628906 7.98679687 25.01257813 7.46484375 24.50390625 C1.75381603 18.65255844 -0.14453994 11.38899208 -0.1875 3.3125 C-0.125625 2.219375 -0.06375 1.12625 0 0 Z " fill="#F3B54B" transform="translate(34,65)"/>
<path d="M0 0 C4.09621053 2.28905883 7.53415091 4.85655548 11 8 C11 8.66 11 9.32 11 10 C11.886875 9.938125 12.77375 9.87625 13.6875 9.8125 C17.41733882 10.02362295 18.90827752 11.01812661 22 13 C26.37421642 14.1536395 30.81596818 14.31738075 35.3125 14.5625 C36.42334961 14.62727539 36.42334961 14.62727539 37.55664062 14.69335938 C39.37091464 14.79870432 41.1854355 14.89978316 43 15 C43 15.66 43 16.32 43 17 C38.77089131 17.05817206 34.54188591 17.09365463 30.3125 17.125 C28.51522461 17.15013672 28.51522461 17.15013672 26.68164062 17.17578125 C25.52470703 17.18222656 24.36777344 17.18867187 23.17578125 17.1953125 C21.58117065 17.21102295 21.58117065 17.21102295 19.9543457 17.22705078 C16.91873219 16.99375431 14.74376733 16.28205135 12 15 C12.33 17.64 12.66 20.28 13 23 C11.824375 23.0928125 11.824375 23.0928125 10.625 23.1875 C9.75875 23.455625 8.8925 23.72375 8 24 C6.76709799 26.45704762 6.76709799 26.45704762 6 29 C5.34 29.33 4.68 29.66 4 30 C3.76889444 26.6361302 3.63879207 23.35710903 4 20 C6 17.75 6 17.75 8 16 C8.5838196 12.9149255 8.5838196 12.9149255 8 10 C7.01 9.34 6.02 8.68 5 8 C5 7.34 5 6.68 5 6 C3.68 6 2.36 6 1 6 C0.67 4.02 0.34 2.04 0 0 Z " fill="#CCCCAC" transform="translate(37,86)"/>
<path d="M0 0 C0 0.66 0 1.32 0 2 C0.66 2 1.32 2 2 2 C2.33 2.66 2.66 3.32 3 4 C5.52733235 4.65555119 5.52733235 4.65555119 8 5 C8 5.66 8 6.32 8 7 C7.01 7.33 6.02 7.66 5 8 C4.05029552 9.73566681 3.10293803 11.47277444 2.1796875 13.22265625 C0.36875774 15.95104381 -2.25801509 17.29387605 -5 19 C-5.33 19.99 -5.66 20.98 -6 22 C-7.98 22.33 -9.96 22.66 -12 23 C-13.42944945 20.64561267 -14.08661261 19.51967567 -13.625 16.75 C-13.41875 16.1725 -13.2125 15.595 -13 15 C-10.525 16.98 -10.525 16.98 -8 19 C-8.33 18.01 -8.66 17.02 -9 16 C-9.61706206 11.96956934 -9.844511 8.46720423 -7.765625 4.85546875 C-3.77049389 0 -3.77049389 0 0 0 Z " fill="#80B3E4" transform="translate(109,97)"/>
<path d="M0 0 C2.91307991 0.52965089 5.66132736 1.20076009 8.5 2.0625 C11.59750917 2.89218996 13.84439293 3.08105155 17 3 C17.19916016 4.33804688 17.19916016 4.33804688 17.40234375 5.703125 C17.57894531 6.87359375 17.75554687 8.0440625 17.9375 9.25 C18.11152344 10.41015625 18.28554687 11.5703125 18.46484375 12.765625 C18.8727736 15.23106961 19.33901303 17.59424562 20 20 C20.66 20 21.32 20 22 20 C22.66 16.37 23.32 12.74 24 9 C25.32 9 26.64 9 28 9 C28.71484375 10.671875 28.71484375 10.671875 29 13 C27.56640625 15.578125 27.56640625 15.578125 25.5625 18.25 C24.90378906 19.14203125 24.24507812 20.0340625 23.56640625 20.953125 C23.04949219 21.62859375 22.53257813 22.3040625 22 23 C19.53199953 21.84826645 17.95216435 20.95216435 16 19 C15.59952556 16.67724823 15.2602896 14.34260643 15 12 C14.030625 11.87625 13.06125 11.7525 12.0625 11.625 C11.051875 11.41875 10.04125 11.2125 9 11 C8.67 10.34 8.34 9.68 8 9 C5.36 9 2.72 9 0 9 C0 6.03 0 3.06 0 0 Z " fill="#A0C5D4" transform="translate(49,101)"/>
<path d="M0 0 C5.94 0 11.88 0 18 0 C17.67 0.99 17.34 1.98 17 3 C17.05486337 4.66784659 17.14097015 6.33481691 17.25 8 C17.28125 10.6796875 17.28125 10.6796875 17 13 C13.84504252 15.97968206 12.37295237 16 8 16 C8 16.66 8 17.32 8 18 C7.01 18.33 6.02 18.66 5 19 C5.66 15.37 6.32 11.74 7 8 C5.02 8.33 3.04 8.66 1 9 C0.67 8.34 0.34 7.68 0 7 C0.66 7 1.32 7 2 7 C2.33 5.68 2.66 4.36 3 3 C2.01 3 1.02 3 0 3 C0 2.01 0 1.02 0 0 Z " fill="#71AFE7" transform="translate(96,0)"/>
<path d="M0 0 C0.66 0 1.32 0 2 0 C2 0.66 2 1.32 2 2 C3.65 2.33 5.3 2.66 7 3 C6.67 10.26 6.34 17.52 6 25 C5.34 25.33 4.68 25.66 4 26 C3.34 25.67 2.68 25.34 2 25 C-0.2072923 24.92907158 -2.41667452 24.91584975 -4.625 24.9375 C-6.40777344 24.95103516 -6.40777344 24.95103516 -8.2265625 24.96484375 C-9.59941406 24.98224609 -9.59941406 24.98224609 -11 25 C-11.33 25.66 -11.66 26.32 -12 27 C-12 25.68 -12 24.36 -12 23 C-8.97265625 22.75585938 -8.97265625 22.75585938 -5.9453125 22.51171875 C-3.60480784 22.12606964 -3.60480784 22.12606964 -2 19 C-1.72347527 16.1235727 -1.53555945 13.31949114 -1.4375 10.4375 C-1.11929275 2.2385855 -1.11929275 2.2385855 0 0 Z " fill="#A8C4C8" transform="translate(22,44)"/>
<path d="M0 0 C1.98 0.66 3.96 1.32 6 2 C5.91890252 5.08439243 5.80608311 8.16683912 5.6875 11.25 C5.65366211 12.55904297 5.65366211 12.55904297 5.61914062 13.89453125 C5.46641097 17.53227391 5.34473538 20.30212107 3.71875 23.59375 C0.65431882 26.10101187 -2.17810819 25.25061586 -6 25 C-6 26.32 -6 27.64 -6 29 C-3.69 29 -1.38 29 1 29 C1.33 29.99 1.66 30.98 2 32 C2.99 32.33 3.98 32.66 5 33 C2.6875 35.5 2.6875 35.5 0 38 C-0.99 38 -1.98 38 -3 38 C-2.67 36.68 -2.34 35.36 -2 34 C-2.99 33.67 -3.98 33.34 -5 33 C-6.6875 31.5625 -6.6875 31.5625 -8 30 C-8 29.34 -8 28.68 -8 28 C-8.66 27.67 -9.32 27.34 -10 27 C-9.505 25.515 -9.505 25.515 -9 24 C-7.88625 23.87625 -6.7725 23.7525 -5.625 23.625 C-1.96896323 23.3534187 -1.96896323 23.3534187 0 21 C0.24315656 18.33050591 0.24315656 18.33050591 0.125 15.375 C0.10695313 14.37210938 0.08890625 13.36921875 0.0703125 12.3359375 C0.04710937 11.56507812 0.02390625 10.79421875 0 10 C0.66 10 1.32 10 2 10 C2 8.68 2 7.36 2 6 C1.34 6 0.68 6 0 6 C0 4.02 0 2.04 0 0 Z " fill="#98BED9" transform="translate(16,42)"/>
<path d="M0 0 C1.58560393 0.25720674 3.16845924 0.53138799 4.75 0.8125 C5.63171875 0.96332031 6.5134375 1.11414062 7.421875 1.26953125 C10.22215024 2.06294257 11.87345147 3.02747718 14 5 C14 5.66 14 6.32 14 7 C13.34 7 12.68 7 12 7 C12.13814223 10.9794733 12.28679674 14.95848415 12.4375 18.9375 C12.47681641 20.07380859 12.51613281 21.21011719 12.55664062 22.38085938 C12.59853516 23.46044922 12.64042969 24.54003906 12.68359375 25.65234375 C12.72025146 26.65257568 12.75690918 27.65280762 12.79467773 28.68334961 C12.74671841 30.96069188 12.74671841 30.96069188 14 32 C14.144375 33.155 14.28875 34.31 14.4375 35.5 C14.623125 36.655 14.80875 37.81 15 39 C15.66 39.33 16.32 39.66 17 40 C17.625 43.0625 17.625 43.0625 18 46 C16.515 45.505 16.515 45.505 15 45 C14.67 44.34 14.34 43.68 14 43 C12.515 42.505 12.515 42.505 11 42 C11 41.34 11 40.68 11 40 C11.66 40 12.32 40 13 40 C13 38.68 13 37.36 13 36 C12.34 36 11.68 36 11 36 C11 34.68 11 33.36 11 32 C10.20335938 32.01160156 9.40671875 32.02320313 8.5859375 32.03515625 C-1.93848858 32.12478032 -1.93848858 32.12478032 -7 31 C-7 30.34 -7 29.68 -7 29 C-1.68833136 27.67208284 3.75881575 27.25293858 9 29 C9.33 21.74 9.66 14.48 10 7 C8.68 6.67 7.36 6.34 6 6 C6 5.34 6 4.68 6 4 C5.38125 3.896875 4.7625 3.79375 4.125 3.6875 C2 3 2 3 0 0 Z " fill="#D5D0AD" transform="translate(18,40)"/>
<path d="M0 0 C0.66 0 1.32 0 2 0 C4.50038768 12.15635638 5.37390869 28.99580505 -1 40 C-2.88315423 42.06630389 -4.67486907 43.39824314 -7 45 C-7.33 45.99 -7.66 46.98 -8 48 C-9.99609375 48.87890625 -9.99609375 48.87890625 -12.4375 49.5625 C-16.09858228 50.58507259 -16.09858228 50.58507259 -19 53 C-22.125 53.125 -22.125 53.125 -25 53 C-25 52.34 -25 51.68 -25 51 C-23.515 50.6596875 -23.515 50.6596875 -22 50.3125 C-17.52087052 49.01711021 -13.60617032 46.96677842 -10 44 C-8.70339566 41.50965614 -8.70339566 41.50965614 -8 39 C-7.3709375 38.42378906 -6.741875 37.84757812 -6.09375 37.25390625 C2.33038385 28.18538903 0.41586747 11.37859594 0 0 Z " fill="#F8CE76" transform="translate(105,48)"/>
<path d="M0 0 C3.89639996 0.11018673 7.79186093 0.24074478 11.6875 0.375 C13.34168945 0.42140625 13.34168945 0.42140625 15.02929688 0.46875 C16.6293457 0.52675781 16.6293457 0.52675781 18.26171875 0.5859375 C19.24100342 0.6173584 20.22028809 0.6487793 21.22924805 0.68115234 C24.12422801 1.01429569 26.35772167 1.79800587 29 3 C29 3.33 29 3.66 29 4 C28.39671875 3.98839844 27.7934375 3.97679687 27.171875 3.96484375 C26.37265625 3.95582031 25.5734375 3.94679688 24.75 3.9375 C23.96109375 3.92589844 23.1721875 3.91429687 22.359375 3.90234375 C20.08786424 3.99636324 18.19405195 4.45148701 16 5 C13.99759451 4.68143549 11.99788438 4.34578768 10 4 C4.76846387 3.53748698 1.39130779 3.99542098 -3 7 C-3.969375 7.309375 -4.93875 7.61875 -5.9375 7.9375 C-13.41138455 10.53048035 -16.1941019 14.40897892 -19.68359375 21.2421875 C-21.22164593 24.46433835 -22.65078998 27.69443546 -24 31 C-24.66 32.32 -25.32 33.64 -26 35 C-26 32.03 -26 29.06 -26 26 C-25.34 26 -24.68 26 -24 26 C-23.79375 25.030625 -23.5875 24.06125 -23.375 23.0625 C-20.91175167 14.61218975 -15.40850259 8.51551295 -8 4 C-4.92319393 2.4957837 -3.4215158 2 0 2 C0 1.34 0 0.68 0 0 Z " fill="#F3E9B7" transform="translate(56,21)"/>
<path d="M0 0 C2 0 2 0 3.625 1.5 C4.07875 1.995 4.5325 2.49 5 3 C5.61875 2.649375 6.2375 2.29875 6.875 1.9375 C7.57625 1.628125 8.2775 1.31875 9 1 C9.66 1.33 10.32 1.66 11 2 C10.67 2.33 10.34 2.66 10 3 C9.92820036 4.51928038 9.91607993 6.04167482 9.9375 7.5625 C9.94652344 8.38878906 9.95554687 9.21507813 9.96484375 10.06640625 C9.97644531 10.70449219 9.98804688 11.34257813 10 12 C10.391875 11.175 10.78375 10.35 11.1875 9.5 C12.0846875 8.2625 12.0846875 8.2625 13 7 C15.6875 6.6875 15.6875 6.6875 18 7 C17.690625 7.9075 17.38125 8.815 17.0625 9.75 C16.2727737 12.16563338 15.57050703 14.52780285 15 17 C9.51219512 17.36585366 9.51219512 17.36585366 7.25 15.75 C5.9327186 13.90580604 4.92639866 12.06658163 4 10 C3.34 10.66 2.68 11.32 2 12 C0 10 0 10 -0.1953125 7.6171875 C-0.17210938 6.71226563 -0.14890625 5.80734375 -0.125 4.875 C-0.10695313 3.96492188 -0.08890625 3.05484375 -0.0703125 2.1171875 C-0.04710938 1.41851562 -0.02390625 0.71984375 0 0 Z " fill="#87B5DF" transform="translate(32,103)"/>
<path d="M0 0 C0 0.66 0 1.32 0 2 C0.99 2.33 1.98 2.66 3 3 C3 3.66 3 4.32 3 5 C3.763125 4.67 4.52625 4.34 5.3125 4 C8 3 8 3 11 3 C11.3125 5.3125 11.3125 5.3125 11 8 C7.95520055 10.34884529 4.58994826 11.66659064 1 13 C0.773125 12.360625 0.54625 11.72125 0.3125 11.0625 C-0.85250896 8.72806339 -0.85250896 8.72806339 -3.625 8.25 C-4.40875 8.1675 -5.1925 8.085 -6 8 C-6 7.34 -6 6.68 -6 6 C-5.34 6 -4.68 6 -4 6 C-4 5.34 -4 4.68 -4 4 C-5.1446875 4.5259375 -5.1446875 4.5259375 -6.3125 5.0625 C-9 6 -9 6 -12 5 C-4.06557377 -2.03278689 -4.06557377 -2.03278689 0 0 Z " fill="#92BED7" transform="translate(35,94)"/>
<path d="M0 0 C0 0.66 0 1.32 0 2 C1.32 2.33 2.64 2.66 4 3 C4.0272415 4.41655793 4.04650467 5.83327045 4.0625 7.25 C4.07410156 8.03890625 4.08570313 8.8278125 4.09765625 9.640625 C4.00385306 11.90691002 3.63241063 13.8288895 3 16 C-0.96 16.495 -0.96 16.495 -5 17 C-5.33 15.35 -5.66 13.7 -6 12 C-4.02 11.01 -2.04 10.02 0 9 C0 7.68 0 6.36 0 5 C-1.65 4.67 -3.3 4.34 -5 4 C-5.33 4.99 -5.66 5.98 -6 7 C-7.32 7 -8.64 7 -10 7 C-10.33 4.69 -10.66 2.38 -11 0 C-6.98195309 -0.84098656 -3.98196457 -1.05404945 0 0 Z " fill="#87B6D9" transform="translate(125,32)"/>
<path d="M0 0 C1.134375 0.020625 2.26875 0.04125 3.4375 0.0625 C3.1075 1.0525 2.7775 2.0425 2.4375 3.0625 C1.385625 3.145 0.33375 3.2275 -0.75 3.3125 C-4.93509419 4.13579722 -6.44034893 5.26899641 -9.5625 8.0625 C-12.0625 9.5625 -12.0625 9.5625 -14.5625 11.0625 C-15.408125 11.76375 -16.25375 12.465 -17.125 13.1875 C-19.41379043 14.94810802 -20.75531575 15.64662085 -23.5625 16.0625 C-23.2325 18.3725 -22.9025 20.6825 -22.5625 23.0625 C-23.738125 23.743125 -23.738125 23.743125 -24.9375 24.4375 C-27.59948031 25.94678742 -27.59948031 25.94678742 -29.5625 28.0625 C-29.17285209 20.65918964 -24.74059653 14.49989374 -19.9375 9.125 C-18.761875 8.1040625 -18.761875 8.1040625 -17.5625 7.0625 C-16.985 6.52625 -16.4075 5.99 -15.8125 5.4375 C-12.85829586 3.63215303 -9.78982101 2.71598888 -6.48828125 1.7109375 C-1.4843419 0.02604109 -1.4843419 0.02604109 0 0 Z " fill="#F9D183" transform="translate(61.5625,23.9375)"/>
<path d="M0 0 C4.95 0 9.9 0 15 0 C14.47916667 1.953125 13.95833333 3.90625 13.4375 5.859375 C12.86650651 8.28901861 12.86650651 8.28901861 13 12 C12.01 11.67 11.02 11.34 10 11 C10 10.34 10 9.68 10 9 C7.36 8.67 4.72 8.34 2 8 C2 10.97 2 13.94 2 17 C1.01 16.67 0.02 16.34 -1 16 C-0.88617347 14.04098546 -0.75858875 12.0827662 -0.625 10.125 C-0.55539063 9.03445313 -0.48578125 7.94390625 -0.4140625 6.8203125 C0 4 0 4 2 2 C1.34 2 0.68 2 0 2 C0 1.34 0 0.68 0 0 Z " fill="#7AB1EB" transform="translate(32,0)"/>
<path d="M0 0 C-0.33 4.95 -0.66 9.9 -1 15 C-0.34 15.33 0.32 15.66 1 16 C1.625 18.0625 1.625 18.0625 2 20 C-1 20 -1 20 -4 18 C-4.6875 15.875 -4.6875 15.875 -5 14 C-5.99 14.33 -6.98 14.66 -8 15 C-6.80100302 11.9168649 -5.52299523 8.93720508 -4 6 C-4.66 6 -5.32 6 -6 6 C-6.226875 6.639375 -6.45375 7.27875 -6.6875 7.9375 C-8 10 -8 10 -10.5 10.75 C-13 11 -13 11 -15 11 C-14.34 9.68 -13.68 8.36 -13 7 C-11.35 7 -9.7 7 -8 7 C-8 5.68 -8 4.36 -8 3 C-7.34 3 -6.68 3 -6 3 C-6 2.34 -6 1.68 -6 1 C-4 0 -4 0 0 0 Z " fill="#AEC5BC" transform="translate(103,8)"/>
<path d="M0 0 C0.33 0 0.66 0 1 0 C1 1.65 1 3.3 1 5 C2.32 5.33 3.64 5.66 5 6 C5 7.98 5 9.96 5 12 C3.35 12 1.7 12 0 12 C-0.33 11.01 -0.66 10.02 -1 9 C-1.66 9 -2.32 9 -3 9 C-3 8.34 -3 7.68 -3 7 C-6.52305286 8.9043529 -9.0742388 10.43734178 -11 14 C-11.52974878 16.67960305 -11.77238514 19.26862168 -12 22 C-12.33 22 -12.66 22 -13 22 C-14.57077907 16.97350697 -15.44854729 12.23880078 -16 7 C-13.36 5.02 -10.72 3.04 -8 1 C-7.67 2.32 -7.34 3.64 -7 5 C-5.35 5.33 -3.7 5.66 -2 6 C-2 6.66 -2 7.32 -2 8 C-1.01 8.33 -0.02 8.66 1 9 C1 9.66 1 10.32 1 11 C1.99 11 2.98 11 4 11 C3.34 10.29875 2.68 9.5975 2 8.875 C-0.30233203 5.56539771 -0.36630156 3.93774177 0 0 Z " fill="#A5C5D1" transform="translate(112,90)"/>
<path d="M0 0 C3.63 0 7.26 0 11 0 C11 1.32 11 2.64 11 4 C11.66 4 12.32 4 13 4 C13 5.32 13 6.64 13 8 C12.34 8 11.68 8 11 8 C11 8.99 11 9.98 11 11 C11.99 11.33 12.98 11.66 14 12 C14 12.66 14 13.32 14 14 C13.01 14 12.02 14 11 14 C10.67 15.32 10.34 16.64 10 18 C9.67 16.68 9.34 15.36 9 14 C8.01 14 7.02 14 6 14 C4.875 9.25 4.875 9.25 6 7 C4.68 6.34 3.36 5.68 2 5 C2 4.34 2 3.68 2 3 C1.34 2.67 0.68 2.34 0 2 C0 1.34 0 0.68 0 0 Z " fill="#B1CAC8" transform="translate(18,72)"/>
<path d="M0 0 C2.1519437 3.22791555 2.20086443 4.28400809 2 8 C3.65 8.33 5.3 8.66 7 9 C6.67 9.66 6.34 10.32 6 11 C9.63 11.33 13.26 11.66 17 12 C17 13.32 17 14.64 17 16 C11.06 16 5.12 16 -1 16 C-0.67 10.72 -0.34 5.44 0 0 Z " fill="#D0D8B5" transform="translate(111,56)"/>
<path d="M0 0 C1.98 0 3.96 0 6 0 C6.66 1.98 7.32 3.96 8 6 C8.66 6 9.32 6 10 6 C10.33 6.99 10.66 7.98 11 9 C7.62496331 7.8141763 5.35277269 6.72426311 3 4 C3.99 5.485 3.99 5.485 5 7 C5.3125 10.5625 5.3125 10.5625 5 14 C4.01 14.66 3.02 15.32 2 16 C-0.89932357 13.60490662 -1.50168276 11.68754757 -2 8 C-1.67 8 -1.34 8 -1 8 C-0.67 5.36 -0.34 2.72 0 0 Z " fill="#8EB8D7" transform="translate(34,8)"/>
<path d="M0 0 C0 0.66 0 1.32 0 2 C0.66 2 1.32 2 2 2 C2.33 2.66 2.66 3.32 3 4 C5.52733235 4.65555119 5.52733235 4.65555119 8 5 C8 5.66 8 6.32 8 7 C4.71023192 8.09658936 3.28696233 7.79953138 0 7 C-0.33 9.31 -0.66 11.62 -1 14 C-1.99 13.67 -2.98 13.34 -4 13 C-4.33 11.02 -4.66 9.04 -5 7 C-7.51083114 8.25541557 -7.87125446 9.50063488 -9 12 C-8.74553175 7.67403972 -8.3880665 5.47997699 -5.625 2.0625 C-3 0 -3 0 0 0 Z " fill="#8EB8D8" transform="translate(109,97)"/>
<path d="M0 0 C0.33 1.98 0.66 3.96 1 6 C1.66 6 2.32 6 3 6 C3 6.66 3 7.32 3 8 C2.18015625 7.91621094 1.3603125 7.83242187 0.515625 7.74609375 C-0.56203125 7.64425781 -1.6396875 7.54242188 -2.75 7.4375 C-3.81734375 7.33308594 -4.8846875 7.22867188 -5.984375 7.12109375 C-8.64141204 7.01439926 -10.49960572 7.18069605 -13 8 C-13.66 6.35 -14.32 4.7 -15 3 C-12 2 -12 2 -8.9375 1.5 C-0.125 0 -0.125 0 0 0 Z " fill="#9ABFD7" transform="translate(92,104)"/>
<path d="M0 0 C0.33 0.66 0.66 1.32 1 2 C3.52733235 2.65555119 3.52733235 2.65555119 6 3 C5.01 3.33 4.02 3.66 3 4 C3.33 6.64 3.66 9.28 4 12 C2.824375 12.0928125 2.824375 12.0928125 1.625 12.1875 C0.75875 12.455625 -0.1075 12.72375 -1 13 C-2.23290201 15.45704762 -2.23290201 15.45704762 -3 18 C-3.66 18.33 -4.32 18.66 -5 19 C-5.63495676 9.75785162 -5.63495676 9.75785162 -3.0625 6.6875 C-2.381875 6.130625 -1.70125 5.57375 -1 5 C-0.20318682 2.35815459 -0.20318682 2.35815459 0 0 Z " fill="#B1C7C4" transform="translate(46,97)"/>
<path d="M0 0 C0.99 0 1.98 0 3 0 C3 0.99 3 1.98 3 3 C0.36 3 -2.28 3 -5 3 C-5 4.32 -5 5.64 -5 7 C-2.69 7 -0.38 7 2 7 C2.33 7.99 2.66 8.98 3 10 C3.99 10.33 4.98 10.66 6 11 C3.6875 13.5 3.6875 13.5 1 16 C0.01 16 -0.98 16 -2 16 C-1.67 14.68 -1.34 13.36 -1 12 C-1.99 11.67 -2.98 11.34 -4 11 C-5.6875 9.5625 -5.6875 9.5625 -7 8 C-7 7.34 -7 6.68 -7 6 C-7.66 5.67 -8.32 5.34 -9 5 C-8.67 4.01 -8.34 3.02 -8 2 C-6.865625 1.855625 -5.73125 1.71125 -4.5625 1.5625 C-1.19222799 1.38828522 -1.19222799 1.38828522 0 0 Z " fill="#89B4D0" transform="translate(15,64)"/>
<path d="M0 0 C0.66 0 1.32 0 2 0 C0.80100302 3.0831351 -0.47700477 6.06279492 -2 9 C-0.35 8.34 1.3 7.68 3 7 C2.67 8.65 2.34 10.3 2 12 C2.639375 12.268125 3.27875 12.53625 3.9375 12.8125 C6 14 6 14 7 17 C6.01 17.33 5.02 17.66 4 18 C3.67 16.68 3.34 15.36 3 14 C2.34 14 1.68 14 1 14 C1 13.01 1 12.02 1 11 C-0.5778125 10.8453125 -0.5778125 10.8453125 -2.1875 10.6875 C-5.87430754 10.02266585 -7.96638599 9.11433704 -11 7 C-8.74889828 5.08239483 -7.3147416 4.05995078 -4.375 3.5 C-1.63634663 3.21277591 -1.63634663 3.21277591 0 0 Z " fill="#BED3C9" transform="translate(97,14)"/>
<path d="M0 0 C0.99 0.33 1.98 0.66 3 1 C2.67 8.26 2.34 15.52 2 23 C1.34 23.33 0.68 23.66 0 24 C-2 23 -2 23 -2.6875 21 C-2.790625 20.34 -2.89375 19.68 -3 19 C-2.67 18.67 -2.34 18.34 -2 18 C-1.7889782 15.16292912 -1.62392187 12.34102354 -1.5 9.5 C-1.13513514 1.13513514 -1.13513514 1.13513514 0 0 Z " fill="#C2CCCE" transform="translate(26,46)"/>
<path d="M0 0 C0.33 0 0.66 0 1 0 C1 3.63 1 7.26 1 11 C-2.96 11 -6.92 11 -11 11 C-11 8.36 -11 5.72 -11 3 C-10.21625 3.495 -9.4325 3.99 -8.625 4.5 C-6.21447673 6.16537965 -6.21447673 6.16537965 -4 6 C-2.63823419 4.01924973 -1.30406884 2.01920337 0 0 Z " fill="#76ADE9" transform="translate(75,117)"/>
<path d="M0 0 C23.32742782 -0.86220472 23.32742782 -0.86220472 31.625 6.25 C32.07875 6.8275 32.5325 7.405 33 8 C30.1875 8.1875 30.1875 8.1875 27 8 C25.4375 6.625 25.4375 6.625 24 5 C19.29037892 2.46834598 14.40759104 2.5618489 9.1875 2.375 C8.30384766 2.33632813 7.42019531 2.29765625 6.50976562 2.2578125 C4.34017028 2.16399216 2.17011453 2.08092674 0 2 C0 1.34 0 0.68 0 0 Z " fill="#F2F2CD" transform="translate(61,20)"/>
<path d="M0 0 C2.97 0 5.94 0 9 0 C8.67 2.97 8.34 5.94 8 9 C7.34 9 6.68 9 6 9 C6 9.66 6 10.32 6 11 C6.66 11 7.32 11 8 11 C7.67 11.99 7.34 12.98 7 14 C2.24352332 12.41450777 2.24352332 12.41450777 0 11 C-1.4375 7.8125 -1.4375 7.8125 -2 5 C1.3 5 4.6 5 8 5 C8 3.68 8 2.36 8 1 C5.36 1 2.72 1 0 1 C0 0.67 0 0.34 0 0 Z " fill="#95B8D0" transform="translate(120,67)"/>
<path d="M0 0 C0.66 0.33 1.32 0.66 2 1 C0.18866935 6.71999153 -1.00097472 9.44806098 -6 13 C-6.33 13.99 -6.66 14.98 -7 16 C-8.99609375 16.87890625 -8.99609375 16.87890625 -11.4375 17.5625 C-15.09858228 18.58507259 -15.09858228 18.58507259 -18 21 C-21.125 21.125 -21.125 21.125 -24 21 C-24 20.34 -24 19.68 -24 19 C-22.515 18.6596875 -22.515 18.6596875 -21 18.3125 C-12.77383431 15.94789367 -5.95634141 10.5798839 -1.6875 3.1875 C-1.130625 2.135625 -0.57375 1.08375 0 0 Z " fill="#DBCF9D" transform="translate(104,80)"/>
<path d="M0 0 C0.33 0 0.66 0 1 0 C1.144375 1.0725 1.28875 2.145 1.4375 3.25 C1.83749442 5.91662949 2.27591924 8.41399729 3 11 C3.66 11 4.32 11 5 11 C5.66 7.37 6.32 3.74 7 0 C8.32 0 9.64 0 11 0 C11.71484375 1.671875 11.71484375 1.671875 12 4 C10.56640625 6.578125 10.56640625 6.578125 8.5625 9.25 C7.90378906 10.14203125 7.24507812 11.0340625 6.56640625 11.953125 C6.04949219 12.62859375 5.53257813 13.3040625 5 14 C2.53199953 12.84826645 0.95216435 11.95216435 -1 10 C-1.23046875 8.125 -1.23046875 8.125 -1.1875 6 C-1.18105469 5.29875 -1.17460938 4.5975 -1.16796875 3.875 C-1 2 -1 2 0 0 Z " fill="#89B4D0" transform="translate(66,110)"/>
<path d="M0 0 C2.00720923 0.28674418 4.0085944 0.61866701 6 1 C5.67 2.65 5.34 4.3 5 6 C5.99 6 6.98 6 8 6 C8.33 4.68 8.66 3.36 9 2 C9.66 2 10.32 2 11 2 C11.33 3.65 11.66 5.3 12 7 C8.55930376 9.29379749 7.27709699 10 3 10 C3 10.66 3 11.32 3 12 C2.01 12.33 1.02 12.66 0 13 C0.66 9.37 1.32 5.74 2 2 C1.01 1.67 0.02 1.34 -1 1 C-0.67 0.67 -0.34 0.34 0 0 Z " fill="#7BB3E1" transform="translate(101,6)"/>
<path d="M0 0 C1.32 0.33 2.64 0.66 4 1 C-1.75 6 -1.75 6 -4 6 C-4.27585937 6.55171875 -4.55171875 7.1034375 -4.8359375 7.671875 C-6.890625 11.78125 -8.9453125 15.890625 -11 20 C-11.33 20 -11.66 20 -12 20 C-12.44365036 11.27487631 -12.44365036 11.27487631 -9 7 C-6.13461258 4.355027 -3.9018921 2.57805809 0 2 C0 1.34 0 0.68 0 0 Z " fill="#CAD3BA" transform="translate(44,25)"/>
<path d="M0 0 C0.680625 0.185625 1.36125 0.37125 2.0625 0.5625 C5.57232191 1.08523943 8.52188063 0.61378577 12 0 C12 0.66 12 1.32 12 2 C12.66 2 13.32 2 14 2 C14 3.32 14 4.64 14 6 C10.37 5.67 6.74 5.34 3 5 C3 6.65 3 8.3 3 10 C1 7 1 7 1.375 4.8125 C1.58125 4.214375 1.7875 3.61625 2 3 C1.34 3 0.68 3 0 3 C0 2.01 0 1.02 0 0 Z " fill="#9AB5D0" transform="translate(13,32)"/>
<path d="M0 0 C0.66 1.98 1.32 3.96 2 6 C1.05125 6.309375 0.1025 6.61875 -0.875 6.9375 C-3.86080408 7.87394742 -3.86080408 7.87394742 -6 9 C-6.66 8.67 -7.32 8.34 -8 8 C-8 5.36 -8 2.72 -8 0 C-5.13822943 -1.43088528 -3.06624227 -0.59991697 0 0 Z " fill="#B2C9D1" transform="translate(118,72)"/>
<path d="M0 0 C1.134375 0.020625 2.26875 0.04125 3.4375 0.0625 C3.1075 1.0525 2.7775 2.0425 2.4375 3.0625 C1.385625 3.145 0.33375 3.2275 -0.75 3.3125 C-4.56193626 3.75174147 -4.56193626 3.75174147 -6.9375 6 C-10.09038356 8.47726565 -12.58761868 8.91994306 -16.4765625 9.5703125 C-18.85015375 10.00236118 -18.85015375 10.00236118 -21.5625 12.0625 C-20.03911994 7.79703584 -17.42887861 6.24173158 -13.5625 4.0625 C-11.20036114 3.17865334 -8.83357781 2.40005934 -6.41796875 1.67578125 C-1.42348655 0.02497345 -1.42348655 0.02497345 0 0 Z " fill="#F9DD90" transform="translate(61.5625,23.9375)"/>
<path d="M0 0 C0.4125 0.474375 0.825 0.94875 1.25 1.4375 C2.86146339 3.14475903 2.86146339 3.14475903 4.9375 3.375 C8.02086495 4.30935302 9.1708587 6.45226747 11 9 C7.91190305 10.76462683 6.76687864 11 3 11 C0.98376361 9.21722256 -0.37344618 7.16873843 -2 5 C-1.34 3.35 -0.68 1.7 0 0 Z " fill="#B3CDCA" transform="translate(35,88)"/>
<path d="M0 0 C1.32 0 2.64 0 4 0 C4 4.95 4 9.9 4 15 C2.68 15.33 1.36 15.66 0 16 C0 10.72 0 5.44 0 0 Z " fill="#C4CBAF" transform="translate(68,0)"/>
<path d="M0 0 C0.66 0.66 1.32 1.32 2 2 C1.625 4 1.625 4 1 6 C1 6.66 1 7.32 1 8 C1.99 8 2.98 8 4 8 C4.1875 10.375 4.1875 10.375 4 13 C3.01 13.66 2.02 14.32 1 15 C0.01 16.485 0.01 16.485 -1 18 C-1 16.68 -1 15.36 -1 14 C-1.99 14 -2.98 14 -4 14 C-3.66666667 12.33333333 -3.33333333 10.66666667 -3 9 C-2.855625 8.154375 -2.71125 7.30875 -2.5625 6.4375 C-2.00704803 4.03054145 -1.19518145 2.15132661 0 0 Z " fill="#91C1D2" transform="translate(23,78)"/>
<path d="M0 0 C-0.33 2.97 -0.66 5.94 -1 9 C-1.66 9 -2.32 9 -3 9 C-2.125 4.25 -2.125 4.25 -1 2 C-1.99 2.66 -2.98 3.32 -4 4 C-4.99 4 -5.98 4 -7 4 C-6.938125 5.175625 -6.938125 5.175625 -6.875 6.375 C-7 9 -7 9 -9 11 C-12.125 11.125 -12.125 11.125 -15 11 C-14.34 9.68 -13.68 8.36 -13 7 C-11.35 7 -9.7 7 -8 7 C-8 5.68 -8 4.36 -8 3 C-7.34 3 -6.68 3 -6 3 C-6 2.34 -6 1.68 -6 1 C-4 0 -4 0 0 0 Z " fill="#9AB6C2" transform="translate(103,8)"/>
<path d="M0 0 C0.99 0 1.98 0 3 0 C3.2144997 8.27015524 3.07422976 15.96235969 1 24 C0.01 23.67 -0.98 23.34 -2 23 C-1.505 21.515 -1.505 21.515 -1 20 C-0.8535286 18.44733347 -0.75305926 16.89004338 -0.68359375 15.33203125 C-0.64169922 14.43935547 -0.59980469 13.54667969 -0.55664062 12.62695312 C-0.51732422 11.69818359 -0.47800781 10.76941406 -0.4375 9.8125 C-0.37272461 8.40194336 -0.37272461 8.40194336 -0.30664062 6.96289062 C-0.20061335 4.64207146 -0.09854971 2.32114675 0 0 Z " fill="#E3DCAC" transform="translate(108,56)"/>
<path d="M0 0 C1.58560393 0.25720674 3.16845924 0.53138799 4.75 0.8125 C5.63171875 0.96332031 6.5134375 1.11414062 7.421875 1.26953125 C10.22215024 2.06294257 11.87345147 3.02747718 14 5 C14 5.66 14 6.32 14 7 C13.34 7 12.68 7 12 7 C12 9.97 12 12.94 12 16 C11.34 16 10.68 16 10 16 C10 13.03 10 10.06 10 7 C8.68 6.67 7.36 6.34 6 6 C6 5.34 6 4.68 6 4 C5.38125 3.896875 4.7625 3.79375 4.125 3.6875 C2 3 2 3 0 0 Z " fill="#D6D0BB" transform="translate(18,40)"/>
<path d="M0 0 C2.99332739 0.9977758 3.94766315 1.7522025 6 4 C6.99 3.67 7.98 3.34 9 3 C9.66 3.33 10.32 3.66 11 4 C10.25 6.4375 10.25 6.4375 9 9 C7.0625 10 7.0625 10 5 10 C1.37387068 7.7685358 0.95951753 3.91187915 0 0 Z " fill="#ADC6C1" transform="translate(37,12)"/>
<path d="M0 0 C0.66 0 1.32 0 2 0 C3.21465446 5.72345182 3.18369236 11.3656132 3.1875 17.1875 C3.19974609 18.18458984 3.21199219 19.18167969 3.22460938 20.20898438 C3.22654297 21.16482422 3.22847656 22.12066406 3.23046875 23.10546875 C3.23457764 23.97324951 3.23868652 24.84103027 3.24291992 25.73510742 C3 28 3 28 1 31 C1.00523682 30.40985107 1.01047363 29.81970215 1.01586914 29.21166992 C1.03666047 26.53695745 1.04966701 23.86226199 1.0625 21.1875 C1.07087891 20.25873047 1.07925781 19.32996094 1.08789062 18.37304688 C1.09111328 17.48037109 1.09433594 16.58769531 1.09765625 15.66796875 C1.10289307 14.84578857 1.10812988 14.0236084 1.11352539 13.17651367 C1.08741524 10.81827404 1.08741524 10.81827404 0 8 C-0.12781786 5.32605036 -0.04391871 2.67904143 0 0 Z " fill="#F5D78F" transform="translate(105,48)"/>
<path d="M0 0 C3.63 0 7.26 0 11 0 C10.34 2.31 9.68 4.62 9 7 C7.35 6.67 5.7 6.34 4 6 C3.67 4.68 3.34 3.36 3 2 C2.01 2 1.02 2 0 2 C0 1.34 0 0.68 0 0 Z " fill="#75B2DE" transform="translate(36,0)"/>
<path d="M0 0 C1.65 0 3.3 0 5 0 C6.66666667 3.33333333 8.33333333 6.66666667 10 10 C7 10 7 10 5.3125 8.625 C4 7 4 7 4 5 C2.35 5 0.7 5 -1 5 C-0.67 3.35 -0.34 1.7 0 0 Z " fill="#C1C4A9" transform="translate(106,91)"/>
<path d="M0 0 C2.35448165 2.55068845 2.98327924 3.71017358 3.1875 7.25 C3.125625 8.1575 3.06375 9.065 3 10 C1.02 10.33 -0.96 10.66 -3 11 C-4.42944945 8.64561267 -5.08661261 7.51967567 -4.625 4.75 C-4.41875 4.1725 -4.2125 3.595 -4 3 C-1.525 4.98 -1.525 4.98 1 7 C0.67 4.69 0.34 2.38 0 0 Z " fill="#81B0D0" transform="translate(100,109)"/>
<path d="M0 0 C0.598125 0.639375 1.19625 1.27875 1.8125 1.9375 C3.90810337 4.20310389 3.90810337 4.20310389 7 5 C7 5.66 7 6.32 7 7 C6.01 7 5.02 7 4 7 C3.67 8.32 3.34 9.64 3 11 C2.67 9.68 2.34 8.36 2 7 C1.01 7 0.02 7 -1 7 C-1.625 4.625 -1.625 4.625 -2 2 C-1.34 1.34 -0.68 0.68 0 0 Z " fill="#ABC4D3" transform="translate(25,79)"/>
<path d="M0 0 C0 0.66 0 1.32 0 2 C0.99 2.33 1.98 2.66 3 3 C3 3.66 3 4.32 3 5 C1.68 5 0.36 5 -1 5 C-1 4.34 -1 3.68 -1 3 C-4.37462715 3.54723683 -6.08235 4.0549 -9 6 C-9.99 5.67 -10.98 5.34 -12 5 C-4.06557377 -2.03278689 -4.06557377 -2.03278689 0 0 Z " fill="#A7BED4" transform="translate(35,94)"/>
<path d="M0 0 C1.65 0 3.3 0 5 0 C5.33 1.65 5.66 3.3 6 5 C4.02 5.66 2.04 6.32 0 7 C0.66 6.01 1.32 5.02 2 4 C2.66 4 3.32 4 4 4 C4 3.34 4 2.68 4 2 C3.05125 2.495 2.1025 2.99 1.125 3.5 C-2 5 -2 5 -4 5 C-4 5.66 -4 6.32 -4 7 C-4.66 7 -5.32 7 -6 7 C-6 5.68 -6 4.36 -6 3 C-5.195625 2.87625 -4.39125 2.7525 -3.5625 2.625 C-2.716875 2.41875 -1.87125 2.2125 -1 2 C-0.67 1.34 -0.34 0.68 0 0 Z " fill="#A7B9B7" transform="translate(120,36)"/>
<path d="M0 0 C0.99 0 1.98 0 3 0 C3 4.62 3 9.24 3 14 C2.34 14 1.68 14 1 14 C-0.04976964 10.85069107 -0.10131595 8.61185544 -0.0625 5.3125 C-0.05347656 4.31863281 -0.04445313 3.32476562 -0.03515625 2.30078125 C-0.02355469 1.54152344 -0.01195313 0.78226562 0 0 Z " fill="#CDD3BB" transform="translate(68,107)"/>
<path d="M0 0 C0.3125 2.3125 0.3125 2.3125 0 5 C-2.5 6.8125 -2.5 6.8125 -5 8 C-5.33 6.68 -5.66 5.36 -6 4 C-6.66 4 -7.32 4 -8 4 C-8 3.34 -8 2.68 -8 2 C-5.09399739 0.74335022 -3.20395416 0 0 0 Z " fill="#A6C5DC" transform="translate(46,97)"/>
<path d="M0 0 C4.09621053 2.28905883 7.53415091 4.85655548 11 8 C11 8.66 11 9.32 11 10 C9.35 9.67 7.7 9.34 6 9 C5.67 8.01 5.34 7.02 5 6 C3.68 6 2.36 6 1 6 C0.67 4.02 0.34 2.04 0 0 Z " fill="#DACD9C" transform="translate(37,86)"/>
<path d="M0 0 C0 1.98 0 3.96 0 6 C-1.32 5.67 -2.64 5.34 -4 5 C-4.66 6.98 -5.32 8.96 -6 11 C-6.33 11 -6.66 11 -7 11 C-7.48798077 4.65625 -7.48798077 4.65625 -5.1875 1.5625 C-3 0 -3 0 0 0 Z " fill="#B3C0A7" transform="translate(48,102)"/>
<path d="M0 0 C0.66 0 1.32 0 2 0 C2 4.95 2 9.9 2 15 C1.34 15 0.68 15 0 15 C-0.95348275 10.23258627 -1.16407956 5.84034716 -1 1 C-0.67 0.67 -0.34 0.34 0 0 Z " fill="#ACCDC2" transform="translate(23,49)"/>
<path d="M0 0 C0 3.38260554 -0.64580357 4.36381219 -2.375 7.1875 C-4.8303827 11.4305126 -6.04142324 15.20711619 -7 20 C-7.33 20 -7.66 20 -8 20 C-8 17.03 -8 14.06 -8 11 C-7.34 11 -6.68 11 -6 11 C-5.7525 9.9275 -5.505 8.855 -5.25 7.75 C-4.00116854 4.00350563 -2.97511342 2.47926118 0 0 Z " fill="#F0D89F" transform="translate(38,36)"/>
<path d="M0 0 C2.375 0.25 2.375 0.25 5 1 C6.3125 3.0625 6.3125 3.0625 7 5 C7.66 5 8.32 5 9 5 C9.33 5.99 9.66 6.98 10 8 C6.62496331 6.8141763 4.35277269 5.72426311 2 3 C2.66 4.32 3.32 5.64 4 7 C3.01 7 2.02 7 1 7 C0.67 4.69 0.34 2.38 0 0 Z " fill="#A6BBB0" transform="translate(35,9)"/>
<path d="M0 0 C6.52307692 -0.36923077 6.52307692 -0.36923077 8.9375 1.5 C9.288125 1.995 9.63875 2.49 10 3 C9.01 3.33 8.02 3.66 7 4 C6.01 5.485 6.01 5.485 5 7 C4.01 7 3.02 7 2 7 C2.33 5.68 2.66 4.36 3 3 C2.01 2.67 1.02 2.34 0 2 C0 1.34 0 0.68 0 0 Z " fill="#89B7E2" transform="translate(11,73)"/>
<path d="M0 0 C0.99 0.495 0.99 0.495 2 1 C2.60967271 4.0257831 2.95979927 7.05469312 3.33984375 10.1171875 C4.02551908 13.11143836 4.62099227 14.14605937 7 16 C6.67 16.66 6.34 17.32 6 18 C3 17 3 17 2.05078125 15.21484375 C0.3343934 9.92037753 -0.30346881 5.56359492 0 0 Z " fill="#F9AF3A" transform="translate(34,65)"/>
<path d="M0 0 C0.33 0 0.66 0 1 0 C1 1.65 1 3.3 1 5 C2.32 5.33 3.64 5.66 5 6 C5 7.98 5 9.96 5 12 C3.35 12 1.7 12 0 12 C-0.33 11.01 -0.66 10.02 -1 9 C-1.66 9 -2.32 9 -3 9 C-3 8.34 -3 7.68 -3 7 C-3.66 6.67 -4.32 6.34 -5 6 C-4.01 6 -3.02 6 -2 6 C-2 6.66 -2 7.32 -2 8 C-1.01 8.33 -0.02 8.66 1 9 C1 9.66 1 10.32 1 11 C1.99 11 2.98 11 4 11 C3.34 10.29875 2.68 9.5975 2 8.875 C-0.30233203 5.56539771 -0.36630156 3.93774177 0 0 Z " fill="#9EB9C2" transform="translate(112,90)"/>
<path d="M0 0 C4.27495594 4.42236821 5.51298598 9.19839226 7 15 C6.01 14.67 5.02 14.34 4 14 C3.67 12.02 3.34 10.04 3 8 C2.01 7.67 1.02 7.34 0 7 C0 4.69 0 2.38 0 0 Z " fill="#EAC177" transform="translate(32,72)"/>
<path d="M0 0 C1.98 0 3.96 0 6 0 C6 0.99 6 1.98 6 3 C5.34 3 4.68 3 4 3 C4 3.66 4 4.32 4 5 C4.66 5 5.32 5 6 5 C5.67 5.99 5.34 6.98 5 8 C3.68 7.34 2.36 6.68 1 6 C1 5.01 1 4.02 1 3 C0.34 3 -0.32 3 -1 3 C-0.67 2.01 -0.34 1.02 0 0 Z " fill="#82B7E0" transform="translate(122,73)"/>
<path d="M0 0 C0.66 0.33 1.32 0.66 2 1 C1.67 1.33 1.34 1.66 1 2 C1.09096556 4.86688248 1.23767988 7.70300515 1.4375 10.5625 C1.48970703 11.36880859 1.54191406 12.17511719 1.59570312 13.00585938 C1.72577376 15.00421738 1.86229056 17.00215386 2 19 C-0.34508562 17.17323519 -0.96180228 16.18227233 -1.58203125 13.22265625 C-1.65808594 12.17980469 -1.73414062 11.13695313 -1.8125 10.0625 C-1.90144531 9.02222656 -1.99039062 7.98195313 -2.08203125 6.91015625 C-1.9991504 3.96985937 -1.53802487 2.46440279 0 0 Z " fill="#FAB54E" transform="translate(33,56)"/>
<path d="M0 0 C0.66 0 1.32 0 2 0 C6.3704972 4.48551028 8.69896185 9.21526723 11 15 C9.68 15 8.36 15 7 15 C6.896875 14.236875 6.79375 13.47375 6.6875 12.6875 C6.24660363 10.0129442 6.24660363 10.0129442 4.625 8.625 C2.14641574 6.14641574 1.28554777 3.2444777 0 0 Z " fill="#F9E9A9" transform="translate(96,33)"/>
<path d="M0 0 C3.57804656 -0.19878036 5.99208089 -0.04108797 9 2 C9.33 2.99 9.66 3.98 10 5 C7.69 4.67 5.38 4.34 3 4 C3.99 5.485 3.99 5.485 5 7 C2.525 6.01 2.525 6.01 0 5 C0 3.35 0 1.7 0 0 Z " fill="#B5BCAB" transform="translate(16,37)"/>
<path d="M0 0 C5.61 0 11.22 0 17 0 C16.01 0.495 16.01 0.495 15 1 C15 1.66 15 2.32 15 3 C13.35 3 11.7 3 10 3 C9.67 4.32 9.34 5.64 9 7 C9 5.02 9 3.04 9 1 C8.071875 1.20625 7.14375 1.4125 6.1875 1.625 C3 2 3 2 0 0 Z " fill="#B2CAC4" transform="translate(57,103)"/>
<path d="M0 0 C0.33 0 0.66 0 1 0 C1 2.64 1 5.28 1 8 C0.67 8 0.34 8 0 8 C0 5.36 0 2.72 0 0 Z M-3 8 C-2.01 8.33 -1.02 8.66 0 9 C-1.32 11.97 -2.64 14.94 -4 18 C-4.99 17.67 -5.98 17.34 -7 17 C-5.68 14.03 -4.36 11.06 -3 8 Z " fill="#C3D2BF" transform="translate(109,72)"/>
<path d="M0 0 C2.31 0 4.62 0 7 0 C6.67 1.98 6.34 3.96 6 6 C4.35 6 2.7 6 1 6 C0.67 4.02 0.34 2.04 0 0 Z " fill="#A2C9D6" transform="translate(72,104)"/>
<path d="M0 0 C4.66600443 5.27461371 4.11486662 11.33773626 4 18 C1.03343051 12.50312124 -0.4036063 6.25589769 0 0 Z " fill="#EFE6BA" transform="translate(106,42)"/>
<path d="M0 0 C2.1519437 3.22791555 2.20086443 4.28400809 2 8 C1.01 8.33 0.02 8.66 -1 9 C-1.33 8.34 -1.66 7.68 -2 7 C-2.99 7.33 -3.98 7.66 -5 8 C-5 7.01 -5 6.02 -5 5 C-4.01 4.67 -3.02 4.34 -2 4 C-0.79117904 1.99983534 -0.79117904 1.99983534 0 0 Z " fill="#A7C2D6" transform="translate(77,8)"/>
<path d="M0 0 C1.32 0 2.64 0 4 0 C4.75 1.625 4.75 1.625 5 4 C3.125 7.25 3.125 7.25 1 10 C0.67 10 0.34 10 0 10 C0 6.7 0 3.4 0 0 Z " fill="#8AB9E0" transform="translate(73,110)"/>
<path d="M0 0 C0 0.99 0 1.98 0 3 C-3.96 3 -7.92 3 -12 3 C-12 2.34 -12 1.68 -12 1 C-7.9472484 0.01751476 -4.16138263 -0.08159574 0 0 Z " fill="#D6D9B6" transform="translate(23,68)"/>
<path d="M0 0 C-0.33 0.66 -0.66 1.32 -1 2 C-1.66386719 1.96519531 -2.32773438 1.93039063 -3.01171875 1.89453125 C-8.40597008 1.72916004 -11.43132891 1.90942838 -16 5 C-18.3125 4.6875 -18.3125 4.6875 -20 4 C-13.57376154 -0.78231699 -7.81498429 -0.42306682 0 0 Z " fill="#F8E6A8" transform="translate(69,23)"/>
<path d="M0 0 C1.98 0 3.96 0 6 0 C6 1.32 6 2.64 6 4 C3.5 6.25 3.5 6.25 1 8 C0.67 5.36 0.34 2.72 0 0 Z " fill="#7DB6E4" transform="translate(73,0)"/>
<path d="M0 0 C1.65 0 3.3 0 5 0 C5 1.32 5 2.64 5 4 C1.7 4 -1.6 4 -5 4 C-5 3.34 -5 2.68 -5 2 C-3.35 2 -1.7 2 0 2 C0 1.34 0 0.68 0 0 Z " fill="#C6C1A1" transform="translate(123,68)"/>
<path d="M0 0 C0.33 0 0.66 0 1 0 C1.33 6.93 1.66 13.86 2 21 C1.01 21 0.02 21 -1 21 C-1.33 20.01 -1.66 19.02 -2 18 C-1.67 17.67 -1.34 17.34 -1 17 C-0.76298761 14.14122091 -0.57780818 11.30116703 -0.4375 8.4375 C-0.39431641 7.63119141 -0.35113281 6.82488281 -0.30664062 5.99414062 C-0.20024738 3.99631195 -0.09959112 1.9981793 0 0 Z " fill="#B4CFD4" transform="translate(25,47)"/>
<path d="M0 0 C0.66 0 1.32 0 2 0 C1.67 1.65 1.34 3.3 1 5 C1.66 5 2.32 5 3 5 C2.125 12.625 2.125 12.625 1 16 C-0.93972995 14.06027005 -0.44223852 10.58999123 -0.625 8 C-0.76808594 6.081875 -0.76808594 6.081875 -0.9140625 4.125 C-0.94242187 3.09375 -0.97078125 2.0625 -1 1 C-0.67 0.67 -0.34 0.34 0 0 Z " fill="#C1D0C9" transform="translate(111,41)"/>
<path d="M0 0 C0.721875 0.185625 1.44375 0.37125 2.1875 0.5625 C5.12826973 1.01995307 7.14103058 0.73516357 10 0 C9.67 0.66 9.34 1.32 9 2 C5.9375 2.625 5.9375 2.625 3 3 C3 5.31 3 7.62 3 10 C1 7 1 7 1.375 4.8125 C1.58125 4.214375 1.7875 3.61625 2 3 C1.34 3 0.68 3 0 3 C0 2.01 0 1.02 0 0 Z " fill="#8AB4DB" transform="translate(13,32)"/>
<path d="M0 0 C4.77841845 -0.33337803 7.01897257 0.44805934 11 3 C13.69254991 3.70670728 13.69254991 3.70670728 16 4 C16 4.33 16 4.66 16 5 C9.49686791 5.46450943 5.5825192 4.32575612 0 1 C0 0.67 0 0.34 0 0 Z " fill="#DDC78A" transform="translate(48,96)"/>
<path d="M0 0 C0.66 0 1.32 0 2 0 C2.1875 2.375 2.1875 2.375 2 5 C1.01 5.66 0.02 6.32 -1 7 C-1.66 7.99 -2.32 8.98 -3 10 C-3.75 7.8125 -3.75 7.8125 -4 5 C-2.1875 2.1875 -2.1875 2.1875 0 0 Z " fill="#94BBDF" transform="translate(25,86)"/>
<path d="M0 0 C1.32 0.33 2.64 0.66 4 1 C4 1.66 4 2.32 4 3 C4.66 3 5.32 3 6 3 C6 3.99 6 4.98 6 6 C6.99 5.67 7.98 5.34 9 5 C9.33 5.99 9.66 6.98 10 8 C6.05783322 7.7312159 4.43510186 7.44655191 1.625 4.5625 C0 2 0 2 0 0 Z " fill="#F5B449" transform="translate(37,82)"/>
<path d="M0 0 C1.32 0 2.64 0 4 0 C4 2.31 4 4.62 4 7 C3.01 7.495 3.01 7.495 2 8 C0.4375 6.25 0.4375 6.25 -1 4 C-0.6875 1.75 -0.6875 1.75 0 0 Z " fill="#B8D0D4" transform="translate(28,38)"/>
<path d="M0 0 C0.99 0 1.98 0 3 0 C3.33 1.32 3.66 2.64 4 4 C4.66 4 5.32 4 6 4 C5.67 4.99 5.34 5.98 5 7 C3.68 7 2.36 7 1 7 C0.67 4.69 0.34 2.38 0 0 Z " fill="#96BEDD" transform="translate(114,32)"/>
<path d="M0 0 C0.93065133 2.60582371 1.14917407 3.64198224 0.0625 6.25 C-0.4634375 7.11625 -0.4634375 7.11625 -1 8 C-2.32 8 -3.64 8 -5 8 C-5.33 6.02 -5.66 4.04 -6 2 C-5.34 2 -4.68 2 -4 2 C-3.67 2.99 -3.34 3.98 -3 5 C-2.01 3.35 -1.02 1.7 0 0 Z " fill="#8CB4C2" transform="translate(45,110)"/>
<path d="M0 0 C0 0.66 0 1.32 0 2 C-1.42578125 3.2890625 -1.42578125 3.2890625 -3.3125 4.625 C-3.92738281 5.07101563 -4.54226562 5.51703125 -5.17578125 5.9765625 C-7 7 -7 7 -10 7 C-10 6.34 -10 5.68 -10 5 C-9.34 5 -8.68 5 -8 5 C-8 4.34 -8 3.68 -8 3 C-5.09451118 0.95830515 -3.59857954 0 0 0 Z " fill="#D4E3AD" transform="translate(124,38)"/>
<path d="M0 0 C1.98 0.495 1.98 0.495 4 1 C3.67 4.63 3.34 8.26 3 12 C2.01 12.33 1.02 12.66 0 13 C0.66 9.37 1.32 5.74 2 2 C1.01 1.67 0.02 1.34 -1 1 C-0.67 0.67 -0.34 0.34 0 0 Z " fill="#8FB1D4" transform="translate(101,6)"/>
<path d="M0 0 C0.66 1.32 1.32 2.64 2 4 C1.21625 4.45375 0.4325 4.9075 -0.375 5.375 C-3.03698031 6.88428742 -3.03698031 6.88428742 -5 9 C-4.50769231 3.46153846 -4.50769231 3.46153846 -1.9375 1.125 C-1.298125 0.75375 -0.65875 0.3825 0 0 Z " fill="#F7C76D" transform="translate(37,43)"/>
<path d="M0 0 C0 1.32 0 2.64 0 4 C-0.66 4 -1.32 4 -2 4 C-2.33 5.32 -2.66 6.64 -3 8 C-3.99 8 -4.98 8 -6 8 C-5.62403791 5.21788056 -5.32681541 3.4120716 -3.5625 1.1875 C-2 0 -2 0 0 0 Z " fill="#76AEF2" transform="translate(112,4)"/>
<path d="M0 0 C0.61875 0.185625 1.2375 0.37125 1.875 0.5625 C4.04160178 1.23686176 4.04160178 1.23686176 6 0 C6 1.32 6 2.64 6 4 C2.04 4 -1.92 4 -6 4 C-6 3.67 -6 3.34 -6 3 C-4.02 3 -2.04 3 0 3 C0 2.01 0 1.02 0 0 Z " fill="#BCCAAA" transform="translate(23,68)"/>
<path d="M0 0 C0.28875 0.639375 0.5775 1.27875 0.875 1.9375 C1.82823451 4.15206079 1.82823451 4.15206079 4 5 C4.625 7.0625 4.625 7.0625 5 9 C2 9 2 9 -1 7 C-1.25 3.9375 -1.25 3.9375 -1 1 C-0.67 0.67 -0.34 0.34 0 0 Z " fill="#AAC9D4" transform="translate(100,19)"/>
<path d="M0 0 C0.66 0 1.32 0 2 0 C2.33 3.63 2.66 7.26 3 11 C2.34 11 1.68 11 1 11 C-0.28317892 7.15046324 -0.06643637 4.05261865 0 0 Z " fill="#FCDE94" transform="translate(105,48)"/>
<path d="M0 0 C2.7972908 2.06756277 3.02692273 3.14440371 3.6875 6.6875 C3.790625 7.780625 3.89375 8.87375 4 10 C3.01 10.33 2.02 10.66 1 11 C1 8.36 1 5.72 1 3 C0.34 3 -0.32 3 -1 3 C-0.67 2.01 -0.34 1.02 0 0 Z " fill="#A1C6CC" transform="translate(111,29)"/>
<path d="M0 0 C3.00796105 2.00530737 4.72007638 3.58687035 6 7 C6 7.99 6 8.98 6 10 C5.01 9.67 4.02 9.34 3 9 C2.05078125 6.93359375 2.05078125 6.93359375 1.3125 4.4375 C1.06113281 3.61121094 0.80976562 2.78492187 0.55078125 1.93359375 C0.36902344 1.29550781 0.18726562 0.65742187 0 0 Z " fill="#D2DFCB" transform="translate(95,106)"/>
<path d="M0 0 C1.33332095 2.6666419 0.67102033 4.16680303 0 7 C0.99 7.33 1.98 7.66 3 8 C2.01 8.66 1.02 9.32 0 10 C-0.66 9.67 -1.32 9.34 -2 9 C-2 6.36 -2 3.72 -2 1 C-1.34 0.67 -0.68 0.34 0 0 Z " fill="#B5D1CE" transform="translate(112,71)"/>
<path d="M0 0 C0.33 0 0.66 0 1 0 C1 1.65 1 3.3 1 5 C2.65 5.33 4.3 5.66 6 6 C5.67 6.66 5.34 7.32 5 8 C2.4375 8.625 2.4375 8.625 0 9 C0 6.03 0 3.06 0 0 Z " fill="#B6D0C9" transform="translate(112,59)"/>
<path d="M0 0 C2.97 0.495 2.97 0.495 6 1 C6 1.66 6 2.32 6 3 C7.65 3.33 9.3 3.66 11 4 C11 4.66 11 5.32 11 6 C6.25 5.125 6.25 5.125 4 4 C4 3.34 4 2.68 4 2 C2.68 1.34 1.36 0.68 0 0 Z " fill="#FBECAB" transform="translate(85,27)"/>
<path d="M0 0 C0.66 1.32 1.32 2.64 2 4 C-0.3125 5.5625 -0.3125 5.5625 -3 7 C-3.99 6.67 -4.98 6.34 -6 6 C-5.34 5.67 -4.68 5.34 -4 5 C-3.67 4.34 -3.34 3.68 -3 3 C-2 1 -2 1 0 0 Z " fill="#7DADE7" transform="translate(102,2)"/>
<path d="M0 0 C3.3776758 1.12589193 4.71363192 2.31943052 7 5 C7 5.99 7 6.98 7 8 C6.01 8 5.02 8 4 8 C0 2.74285714 0 2.74285714 0 0 Z " fill="#D3E1C5" transform="translate(37,12)"/>
<path d="M0 0 C0.66 0 1.32 0 2 0 C2 0.99 2 1.98 2 3 C2.66 3 3.32 3 4 3 C4 4.32 4 5.64 4 7 C2.68 7 1.36 7 0 7 C0 4.69 0 2.38 0 0 Z " fill="#A2C4D3" transform="translate(64,9)"/>
<path d="M0 0 C0.33 0 0.66 0 1 0 C1 3.3 1 6.6 1 10 C1.99 9.67 2.98 9.34 4 9 C3.67 10.32 3.34 11.64 3 13 C2.01 13 1.02 13 0 13 C0 8.71 0 4.42 0 0 Z " fill="#97BBCF" transform="translate(72,0)"/>
<path d="M0 0 C0.66 0 1.32 0 2 0 C1.5206753 4.31392226 0.2542015 6.16569547 -3 9 C-2.5020163 5.26512223 -2.12508244 3.18762365 0 0 Z " fill="#CAE8CA" transform="translate(44,107)"/>
<path d="M0 0 C2 3.75 2 3.75 2 6 C-0.31 6 -2.62 6 -5 6 C-5 5.34 -5 4.68 -5 4 C-4.360625 3.71125 -3.72125 3.4225 -3.0625 3.125 C-0.84793921 2.17176549 -0.84793921 2.17176549 0 0 Z " fill="#97C0C9" transform="translate(91,104)"/>
<path d="M0 0 C0.99 0.33 1.98 0.66 3 1 C3.33 3.31 3.66 5.62 4 8 C2 6.8125 2 6.8125 0 5 C-0.25 2.3125 -0.25 2.3125 0 0 Z " fill="#77B5DE" transform="translate(16,92)"/>
<path d="M0 0 C0.99 0 1.98 0 3 0 C1.54744301 3.82946843 -0.42895561 5.12050295 -4 7 C-2.92598892 4.08482708 -2.22189824 2.22189824 0 0 Z " fill="#CFE5BD" transform="translate(27,92)"/>
<path d="M0 0 C1.32 0.33 2.64 0.66 4 1 C0.535 3.97 0.535 3.97 -3 7 C-3.66 6.67 -4.32 6.34 -5 6 C-4.01 5.67 -3.02 5.34 -2 5 C-0.78130071 2.49552484 -0.78130071 2.49552484 0 0 Z " fill="#FDCE75" transform="translate(45,32)"/>
<path d="M0 0 C0.66 0 1.32 0 2 0 C2 3.3 2 6.6 2 10 C1.34 9.67 0.68 9.34 0 9 C-0.44921875 7.1875 -0.44921875 7.1875 -0.6875 5 C-0.77386719 4.278125 -0.86023437 3.55625 -0.94921875 2.8125 C-0.96597656 2.214375 -0.98273437 1.61625 -1 1 C-0.67 0.67 -0.34 0.34 0 0 Z " fill="#89ADE9" transform="translate(38,108)"/>
<path d="M0 0 C0.99 0 1.98 0 3 0 C3 1.32 3 2.64 3 4 C3.66 4 4.32 4 5 4 C5 4.66 5 5.32 5 6 C3.68 6 2.36 6 1 6 C0.67 4.02 0.34 2.04 0 0 Z " fill="#C1CFC6" transform="translate(26,72)"/>
<path d="M0 0 C0.33 0 0.66 0 1 0 C1.33 4.95 1.66 9.9 2 15 C1.01 15.33 0.02 15.66 -1 16 C-0.67 10.72 -0.34 5.44 0 0 Z " fill="#C5D2B7" transform="translate(111,56)"/>
<path d="M0 0 C3.24271506 0.5590888 4.93057424 1.4132178 7 4 C7 4.66 7 5.32 7 6 C6.01 6 5.02 6 4 6 C0 1.54285714 0 1.54285714 0 0 Z " fill="#D3E2D0" transform="translate(109,95)"/>
<path d="M0 0 C0.66 0.33 1.32 0.66 2 1 C1.67 1.99 1.34 2.98 1 4 C1.99 4 2.98 4 4 4 C4 5.32 4 6.64 4 8 C3.01 8 2.02 8 1 8 C-1.125 3.375 -1.125 3.375 0 0 Z " fill="#83B2E7" transform="translate(18,88)"/>
<path d="M0 0 C2.97 0.495 2.97 0.495 6 1 C6 1.66 6 2.32 6 3 C6.66 3 7.32 3 8 3 C8 3.66 8 4.32 8 5 C2.25 3.375 2.25 3.375 0 0 Z " fill="#E0E1BC" transform="translate(18,40)"/>
<path d="M0 0 C0.99 0 1.98 0 3 0 C3.1875 2.875 3.1875 2.875 3 6 C2.01 6.66 1.02 7.32 0 8 C0 5.33333333 0 2.66666667 0 0 Z " fill="#A2BED0" transform="translate(36,16)"/>
<path d="M0 0 C2.31 0 4.62 0 7 0 C6.01 1.485 6.01 1.485 5 3 C1.875 3.1875 1.875 3.1875 -1 3 C-0.67 2.01 -0.34 1.02 0 0 Z " fill="#A6C6BD" transform="translate(89,16)"/>
<path d="M0 0 C2.475 0.495 2.475 0.495 5 1 C5.33 2.32 5.66 3.64 6 5 C5.01 4.34 4.02 3.68 3 3 C2.01 3 1.02 3 0 3 C0 2.01 0 1.02 0 0 Z " fill="#B9C0A5" transform="translate(93,104)"/>
<path d="M0 0 C2.475 0.495 2.475 0.495 5 1 C5.33 2.32 5.66 3.64 6 5 C3 4 3 4 0 2 C0 1.34 0 0.68 0 0 Z " fill="#A3C3D2" transform="translate(114,73)"/>
<path d="M0 0 C1.98 0 3.96 0 6 0 C5.67 1.65 5.34 3.3 5 5 C4.01 4.67 3.02 4.34 2 4 C2 3.34 2 2.68 2 2 C1.34 1.34 0.68 0.68 0 0 Z " fill="#9FC6D2" transform="translate(18,73)"/>
<path d="M0 0 C0 1.32 0 2.64 0 4 C-1.65 4 -3.3 4 -5 4 C-5 3.01 -5 2.02 -5 1 C-3 0 -3 0 0 0 Z " fill="#98C2DE" transform="translate(27,34)"/>
<path d="M0 0 C-0.66 1.65 -1.32 3.3 -2 5 C-2.99 4.67 -3.98 4.34 -5 4 C-5.33 4.66 -5.66 5.32 -6 6 C-6 4.68 -6 3.36 -6 2 C-2.25 0 -2.25 0 0 0 Z " fill="#BDCAB5" transform="translate(102,10)"/>
<path d="M0 0 C-0.33 1.32 -0.66 2.64 -1 4 C-2.98 4 -4.96 4 -7 4 C-7.33 3.34 -7.66 2.68 -8 2 C-2.25 0 -2.25 0 0 0 Z " fill="#7CB0E4" transform="translate(48,116)"/>
<path d="M0 0 C-0.33 1.65 -0.66 3.3 -1 5 C-1.33 4.34 -1.66 3.68 -2 3 C-3.65 3.66 -5.3 4.32 -7 5 C-6 2 -6 2 -4.0625 0.8125 C-2 0 -2 0 0 0 Z " fill="#A9C9D8" transform="translate(92,101)"/>
<path d="M0 0 C0.99 0 1.98 0 3 0 C2.6875 1.875 2.6875 1.875 2 4 C1.01 4.66 0.02 5.32 -1 6 C-1.042721 4.33388095 -1.04063832 2.66617115 -1 1 C-0.67 0.67 -0.34 0.34 0 0 Z " fill="#8AC3D3" transform="translate(37,101)"/>
<path d="M0 0 C0.33 0.99 0.66 1.98 1 3 C-1.97 5.475 -1.97 5.475 -5 8 C-4.64950425 4.75791433 -4.43778819 3.38472296 -1.9375 1.1875 C-1.298125 0.795625 -0.65875 0.40375 0 0 Z " fill="#A3B9B2" transform="translate(28,89)"/>
<path d="M0 0 C2.475 0.495 2.475 0.495 5 1 C5.33 1.99 5.66 2.98 6 4 C4.02 4 2.04 4 0 4 C0.66 3.67 1.32 3.34 2 3 C2 2.34 2 1.68 2 1 C1.34 0.67 0.68 0.34 0 0 Z " fill="#C3D1B1" transform="translate(24,42)"/>
<path d="M0 0 C0.66 0.33 1.32 0.66 2 1 C0.68 3.64 -0.64 6.28 -2 9 C-3 5 -3 5 -1.5625 2.25 C-1.046875 1.5075 -0.53125 0.765 0 0 Z " fill="#C1D4C8" transform="translate(35,32)"/>
</svg>
